<svg width="57" height="57" viewBox="0 0 57 57" fill="none" xmlns="http://www.w3.org/2000/svg">
<g clip-path="url(#clip0_465_737)">
<mask id="mask0_465_737" style="mask-type:luminance" maskUnits="userSpaceOnUse" x="0" y="0" width="57" height="57">
<path d="M56.064 0H0V56.064H56.064V0Z" fill="white"/>
</mask>
<g mask="url(#mask0_465_737)">
<path d="M56.064 28.032C56.064 12.5503 43.5137 0 28.032 0C12.5503 0 0 12.5503 0 28.032C0 43.5137 12.5503 56.064 28.032 56.064C43.5137 56.064 56.064 43.5137 56.064 28.032Z" fill="#C0EBB9" fill-opacity="0.4"/>
<path d="M28.032 56.064C43.5137 56.064 56.064 43.5137 56.064 28.032C56.064 12.5503 43.5137 0 28.032 0C12.5503 0 0 12.5503 0 28.032C0 43.5137 12.5503 56.064 28.032 56.064Z" fill="#C0EBB9" fill-opacity="0.4"/>
</g>
<path d="M31.6577 32.2696C30.9969 31.0133 30.2086 30.3843 29.5857 30.0702C28.9628 29.7561 28.5049 29.7561 28.5049 29.7561C28.5049 29.7561 26.6715 29.7561 25.3519 32.2696C23.9811 34.8781 21.1049 36.8946 17.6132 35.8085C15.8378 35.2576 14.7211 34.5307 13.7136 34.2019C14.3311 37.7666 16.5053 40.3274 19.2878 41.9928C22.0703 43.6582 25.4586 44.4385 28.5049 44.4385C34.5974 44.4385 42.0607 41.3318 43.2966 34.2019C42.289 34.5275 41.1716 35.2564 39.3969 35.8085C35.9049 36.8958 33.0286 34.8793 31.6577 32.2696ZM32.6857 40.5136H32.6366C32.4827 40.946 32.2637 41.353 31.987 41.7211C31.4245 42.4611 30.3619 43.347 28.5049 43.347C26.6457 43.347 25.5853 42.4627 25.0228 41.7211C24.7466 41.353 24.5283 40.946 24.3753 40.5136H24.3261C21.6341 40.4951 21.8578 38.2801 21.8578 38.2801C21.8578 38.2801 22.7777 39.2577 24.7949 38.9789C26.8119 38.7002 27.3548 38.0597 27.4257 37.8036C27.4965 37.5475 27.4257 37.0003 27.4257 37.0003C27.4257 37.0003 25.4153 36.4848 25.2703 34.3215C25.2621 34.2533 25.2579 34.1847 25.2578 34.1159C25.2578 32.8559 26.7124 31.8347 28.5078 31.8347C30.302 31.8347 31.7578 32.8559 31.7578 34.1159C31.7576 34.1847 31.7534 34.2533 31.7449 34.3215C31.5998 36.4848 29.5894 37.0003 29.5894 37.0003C29.5894 37.0003 29.5186 37.5475 29.5894 37.8036C29.6603 38.0597 30.2028 38.6998 32.2199 38.9789C34.2369 39.2581 35.1574 38.2801 35.1574 38.2801C35.1574 38.2801 35.3778 40.4964 32.6857 40.5149V40.5136Z" fill="#18171F"/>
<path d="M26.9331 41.0531C27.0952 40.8854 27.376 40.7983 27.6602 40.8098C27.376 40.797 27.0947 40.8846 26.9331 41.0531Z" fill="black"/>
<path d="M45.0935 23.1428C44.7819 20.4113 44.164 17.2663 42.951 14.7869C42.8588 14.5984 42.763 14.4139 42.6635 14.2336C42.441 13.8258 42.1914 13.4331 41.9165 13.0578C41.9094 13.0475 41.9023 13.0372 41.8948 13.0274V13.0249L41.8873 13.015C41.8373 12.9482 41.7867 12.8828 41.7357 12.8189C41.2907 12.3134 40.6882 11.9681 40.0228 11.8372C38.6606 11.5646 36.5053 12.0617 33.5644 15.5018C33.6506 15.6334 33.7273 15.7708 33.794 15.9129L33.8123 15.9541C33.8423 16.0211 33.859 16.0655 33.8635 16.0774C33.9173 16.1407 33.9727 16.2102 34.0302 16.2829C34.1304 16.4128 34.2225 16.5486 34.3061 16.6895C34.3061 16.6895 33.5223 16.1674 31.7502 15.8369C31.1835 15.7331 30.6112 15.661 30.0361 15.6211C29.5681 15.5873 29.0602 15.5688 28.5069 15.5717H28.499C28.401 15.5717 28.3052 15.5717 28.2098 15.5717H28.0936C28.008 15.5717 27.9237 15.5735 27.8406 15.5771L27.7356 15.5795C27.6523 15.5823 27.569 15.5856 27.4857 15.5894L27.3907 15.5935C27.3073 15.5976 27.224 15.6025 27.1448 15.6075L27.059 15.6128L26.8181 15.6309L26.7398 15.6375C26.6602 15.6441 26.5827 15.6515 26.5056 15.6593L26.4339 15.6663C26.3569 15.6745 26.2819 15.6831 26.2077 15.6918L26.1403 15.6996C26.0664 15.709 25.9944 15.7185 25.9232 15.7283L25.8598 15.737C25.7889 15.7468 25.7202 15.7575 25.6515 15.7682L25.5906 15.7777C25.5236 15.7884 25.4585 15.7995 25.394 15.811L25.3331 15.825C25.2694 15.8365 25.2081 15.848 25.1473 15.8599L25.0902 15.871C25.0306 15.8829 24.9736 15.8953 24.9165 15.9076L24.8594 15.9195C24.8044 15.9318 24.7515 15.9438 24.6986 15.9565L24.641 15.9697L24.4944 16.0063L24.4348 16.0215C24.3898 16.033 24.3465 16.0449 24.3031 16.0568L24.241 16.0741C24.1994 16.0852 24.1623 16.0967 24.1239 16.1078L24.059 16.1271C24.024 16.1374 23.9907 16.1481 23.9574 16.1588C23.9344 16.1658 23.9111 16.1728 23.889 16.1802L23.8035 16.2085C23.779 16.2167 23.7544 16.2246 23.7311 16.2328L23.6623 16.257C23.6361 16.2665 23.6094 16.2755 23.5844 16.285L23.5335 16.3039L23.4503 16.3356L23.419 16.3483L23.3269 16.3849L23.316 16.3894C22.8994 16.5609 22.7052 16.6912 22.7052 16.6912C22.7882 16.5514 22.8794 16.4166 22.9785 16.2875C23.0348 16.2139 23.0911 16.1436 23.1452 16.0794V16.0737C23.2089 15.9101 23.2877 15.7525 23.3802 15.603L23.3889 15.5886V15.5865C23.3998 15.5693 23.4107 15.5516 23.4223 15.5335C23.429 15.5228 23.4352 15.5125 23.4423 15.5018C23.3836 15.4332 23.3257 15.367 23.2678 15.3008L23.2081 15.2321C23.169 15.1877 23.1302 15.1454 23.0915 15.1022C23.0527 15.0591 23.0139 15.0155 22.976 14.9736C22.9381 14.9316 22.9078 14.9 22.8735 14.8634C22.8319 14.8177 22.7902 14.7713 22.7486 14.7269C22.7161 14.6928 22.6844 14.6607 22.6527 14.627C22.611 14.5822 22.5661 14.5361 22.5231 14.4925C22.4923 14.4609 22.4619 14.4309 22.431 14.4C22.3894 14.3565 22.344 14.3121 22.301 14.2697C22.2711 14.2401 22.2415 14.2122 22.2115 14.183C22.1698 14.1419 22.1252 14.1008 22.0827 14.0596L21.9952 13.9774C21.9535 13.9363 21.9119 13.8977 21.8677 13.859L21.781 13.7817C21.7394 13.7443 21.6978 13.7065 21.656 13.6703C21.6273 13.6452 21.599 13.6214 21.5727 13.5971C21.5311 13.5618 21.4894 13.526 21.4477 13.4923C21.4194 13.4685 21.3915 13.4459 21.3644 13.4228C21.3228 13.39 21.284 13.3566 21.244 13.3246C21.216 13.302 21.1882 13.281 21.1606 13.2592C21.119 13.228 21.0819 13.1971 21.0428 13.1671C21.0148 13.1458 20.9873 13.126 20.9594 13.105L20.8452 13.0199L20.7618 12.9607L20.6507 12.8822L20.5673 12.8267C20.5311 12.8021 20.4948 12.7778 20.459 12.7544C20.4314 12.7363 20.404 12.719 20.3757 12.7017C20.3406 12.6791 20.3056 12.6565 20.2707 12.6352L20.1873 12.5858C20.1531 12.5653 20.1194 12.5447 20.0857 12.5254C20.0581 12.5093 20.0311 12.4945 20.0023 12.4789C19.9736 12.4633 19.9365 12.4419 19.9035 12.4242C19.8706 12.4066 19.8494 12.3951 19.8223 12.3811C19.7952 12.3671 19.7586 12.3474 19.7269 12.3313C19.6952 12.3153 19.6723 12.3042 19.6435 12.2902L19.5515 12.2458L19.4681 12.2088C19.4382 12.1953 19.4086 12.1817 19.3794 12.1677C19.3502 12.1537 19.3252 12.1447 19.2986 12.1336C19.2719 12.1225 19.2411 12.1097 19.2123 12.0986L19.1323 12.0678L19.049 12.037C19.0219 12.0271 18.9952 12.0181 18.9686 12.009L18.889 11.9823L18.8094 11.9576C18.7836 11.9498 18.7581 11.942 18.7327 11.935C18.7073 11.928 18.6798 11.9202 18.6536 11.9132L18.5798 11.8939L18.5011 11.8754L18.4302 11.8594L18.3523 11.8438L18.284 11.831L18.2069 11.8183L18.1411 11.8084L18.0656 11.799L18.0015 11.7916L17.9273 11.785L17.8656 11.78L17.7927 11.7763C17.7727 11.7763 17.7527 11.7755 17.7327 11.7739C17.7127 11.7722 17.689 11.7722 17.6615 11.7739H17.6123H17.5394H17.4844L17.4136 11.778L17.3598 11.7817L17.2919 11.7878L17.2386 11.7936L17.1736 11.8022L17.1211 11.81C17.1002 11.8129 17.0794 11.8166 17.059 11.8203L17.0069 11.8298L16.9481 11.8417L16.8965 11.8532C16.8777 11.8573 16.859 11.8618 16.8406 11.8668L16.789 11.8799L16.7373 11.8943L16.6856 11.9095L16.6373 11.9248L16.5852 11.9416L16.5436 11.9572L16.4911 11.9766L16.4494 11.9922L16.3961 12.0136L16.3611 12.0288L16.3065 12.0526L16.2761 12.067L16.2206 12.0933L16.1948 12.1061L16.1381 12.1352L16.1177 12.1463L16.0594 12.1784L16.0444 12.187L15.9844 12.2224L15.9744 12.2286L15.9127 12.2668L15.909 12.2693C15.6718 12.4193 15.4584 12.6029 15.2756 12.8144C15.2243 12.878 15.1737 12.9433 15.124 13.0105L15.1161 13.0204V13.0228C14.8568 13.3739 14.6202 13.7408 14.4077 14.1213C14.2863 14.3365 14.1701 14.5575 14.059 14.7844C13.2986 16.3401 12.7723 18.1576 12.4086 19.9702C12.1931 21.0452 12.0336 22.1187 11.9181 23.1357C11.8862 23.418 11.8572 23.6957 11.8311 23.9687C11.8767 24.0225 11.9294 24.0703 11.9877 24.1105C12.0667 24.1639 12.1566 24.1994 12.2511 24.2148C12.3455 24.2301 12.4422 24.2248 12.5344 24.1993C13.3211 24.0131 13.4369 22.9421 13.4369 22.9421C13.3306 18.8659 15.1156 15.7888 16.0781 14.4366C16.1306 14.3635 16.1802 14.2948 16.2273 14.2311C16.3606 14.051 16.5519 13.9209 16.7699 13.8621C16.988 13.8034 17.2198 13.8196 17.4273 13.9079C17.8319 14.0837 18.2007 14.3304 18.5161 14.636L18.5194 14.6393C18.6676 14.7824 18.8054 14.9356 18.9319 15.0977C18.934 15.1 18.936 15.1025 18.9377 15.1051C19.5473 15.8862 19.8544 16.7907 19.996 17.3276C20.0295 17.4564 20.0169 17.5927 19.96 17.7133C19.9032 17.8338 19.8058 17.9313 19.6844 17.9891C19.1933 18.2276 18.7284 18.5152 18.2969 18.8474C18.219 18.9428 12.8969 25.4701 13.5886 33.2302C13.6002 33.363 13.6148 33.4937 13.6302 33.6236C13.6544 33.8185 13.6823 34.0109 13.7136 34.1992C14.7211 34.5248 15.8386 35.2537 17.6131 35.8057C21.1048 36.892 23.981 34.8755 25.3519 32.267C26.6723 29.7538 28.5048 29.7534 28.5048 29.7534C28.5048 29.7534 28.9632 29.7534 29.5856 30.0675C30.2081 30.3815 30.9969 31.0105 31.6577 32.267C33.0285 34.8755 35.9048 36.892 39.3964 35.8057C41.1719 35.2537 42.2885 34.5248 43.296 34.1992C43.3285 34.01 43.3564 33.8182 43.3794 33.6236C43.3957 33.4937 43.4102 33.363 43.421 33.2302C44.1136 25.4701 38.7915 18.9428 38.7128 18.8474C38.2813 18.5152 37.8165 18.2276 37.3256 17.9891C37.2042 17.9314 37.1067 17.8339 37.0498 17.7133C36.9929 17.5928 36.9801 17.4564 37.0135 17.3276C37.1553 16.7886 37.4623 15.8862 38.0723 15.1051C38.0739 15.1024 38.0759 15.0999 38.0781 15.0977C38.2045 14.9355 38.3423 14.7823 38.4907 14.6393L38.494 14.636C38.8094 14.3307 39.1785 14.0844 39.5831 13.9092C39.7907 13.8209 40.0225 13.8048 40.2405 13.8635C40.4585 13.9222 40.6498 14.0522 40.7831 14.2323C40.8302 14.2956 40.8798 14.3643 40.9323 14.4379C41.8948 15.7917 43.6798 18.8672 43.5732 22.9433C43.5732 22.9433 43.689 24.0143 44.4752 24.2005C44.5675 24.2261 44.6642 24.2314 44.7588 24.216C44.8533 24.2007 44.9433 24.1651 45.0223 24.1117C45.0807 24.0715 45.1334 24.0238 45.179 23.9699C45.1548 23.699 45.1248 23.4218 45.0935 23.1428Z" fill="#E70C00"/>
<path d="M22.1776 24.5106C22.3506 24.788 22.5683 25.0356 22.8222 25.2437C23.4993 25.7954 24.3409 25.9541 24.9638 25.5725C25.7917 25.0664 25.9263 23.7961 25.2805 22.7075C25.2668 22.6841 25.2535 22.6611 25.2388 22.638C24.5672 21.5691 23.3751 21.0889 22.5305 21.5305C22.5027 21.5451 22.4761 21.5602 22.4505 21.5761C21.6072 22.0933 21.4843 23.4073 22.1776 24.5106Z" fill="#18171F"/>
<path d="M15.5203 20.397C16.812 18.193 19.0374 15.1174 16.0757 14.4358C15.1132 15.7896 13.3282 18.8651 13.4345 22.9413C13.4582 22.931 14.2499 22.5655 15.5203 20.397Z" fill="#18171F"/>
<path d="M18.5178 14.6399C18.6687 14.7972 18.8062 14.95 18.9303 15.0983C18.8039 14.9361 18.666 14.783 18.5178 14.6399Z" fill="#18171F"/>
<path d="M18.2958 18.8501C18.7273 18.5178 19.1922 18.2302 19.6833 17.9917C19.8047 17.9339 19.9021 17.8365 19.9589 17.7159C20.0157 17.5953 20.0284 17.459 19.9949 17.3302C19.8533 16.7912 19.5462 15.8889 18.9366 15.1077C18.9349 15.1051 18.9329 15.1026 18.9308 15.1003C18.8063 14.9523 18.6688 14.7995 18.5183 14.642L18.5149 14.6387C18.1996 14.333 17.8307 14.0863 17.4262 13.9106C17.2187 13.8222 16.9869 13.8061 16.7688 13.8648C16.5508 13.9235 16.3595 14.0536 16.2262 14.2337C16.1791 14.297 16.1295 14.3657 16.077 14.4393C19.0387 15.1209 16.812 18.1964 15.5216 20.4004C14.2512 22.5686 13.4595 22.9341 13.4358 22.9443C13.4513 23.5328 13.505 24.1197 13.5966 24.7015C13.6043 24.7499 13.6278 24.7946 13.6636 24.8287C13.6993 24.8628 13.7454 24.8844 13.7947 24.8904C13.8441 24.8963 13.8941 24.8861 13.9371 24.8614C13.98 24.8368 14.0137 24.7989 14.0329 24.7536C14.5958 23.427 15.9912 20.6088 18.2945 18.8513L18.2958 18.8501Z" fill="#DBBDBF"/>
<path d="M13.2219 34.0788C13.389 34.1087 13.5538 34.1499 13.7152 34.2021C13.6823 34.013 13.6544 33.8206 13.6319 33.6266C13.6156 33.4967 13.6011 33.3659 13.5902 33.2332C12.8952 25.473 18.2173 18.9458 18.2935 18.8504C15.9886 20.6079 14.5948 23.426 14.0319 24.7528C14.0127 24.798 13.979 24.8358 13.9361 24.8605C13.8931 24.8852 13.8431 24.8953 13.7937 24.8895C13.7444 24.8836 13.6983 24.8619 13.6626 24.8278C13.6268 24.7937 13.6033 24.749 13.5956 24.7005C13.504 24.1188 13.4503 23.532 13.4348 22.9435C13.4348 22.9435 13.319 24.0143 12.5323 24.2006C12.4401 24.2263 12.3434 24.2316 12.249 24.2163C12.1545 24.2009 12.0646 24.1653 11.9856 24.1118C11.9273 24.0716 11.8746 24.0239 11.829 23.9699C11.6302 26.0465 11.6036 27.7966 11.606 28.6924C11.606 29.0895 11.6144 29.3194 11.6152 29.3346C11.6159 29.3741 11.6121 29.4135 11.604 29.4521C11.6006 29.4678 11.5985 29.4838 11.594 29.4994C11.5894 29.515 11.126 31.1139 11.1015 33.1994C11.099 33.4333 11.1015 33.6804 11.1131 33.9365C11.1211 34.1298 11.1327 34.3279 11.1502 34.531C11.9369 34.0583 12.5756 33.9612 13.2219 34.0788Z" fill="#A50400"/>
<path d="M24.9779 39.4224C26.7246 39.1758 27.6388 38.5402 28.0559 38.1426V36.8044C27.5163 36.7285 27.0025 36.5284 26.5559 36.2202C26.52 36.1956 26.4846 36.1705 26.4501 36.145C26.3809 36.0937 26.3138 36.0402 26.2496 35.9847C25.7025 35.5143 25.3404 34.908 25.2704 34.3238C25.4155 36.4871 27.4259 37.0026 27.4259 37.0026C27.4259 37.0026 27.4967 37.5498 27.4259 37.8059C27.355 38.0621 26.8125 38.7022 24.7951 38.9812C22.7775 39.2604 21.8579 38.2824 21.8579 38.2824C21.8579 38.2824 22.7038 39.7447 24.9779 39.4224Z" fill="#DBBDBF"/>
<path d="M22.9794 16.2866C22.8802 16.4156 22.7889 16.5505 22.7061 16.6903C22.9004 16.5726 23.1048 16.4719 23.3169 16.3893L23.3277 16.3848L23.4198 16.3482L23.451 16.3355L23.5344 16.3038L23.5853 16.2849C23.6102 16.2755 23.6369 16.2664 23.6632 16.257L23.7319 16.2327C23.7553 16.2245 23.7798 16.2167 23.8044 16.2084L23.8899 16.1801C23.9119 16.1727 23.9353 16.1657 23.9581 16.1587C23.9915 16.148 24.0248 16.1373 24.0598 16.127L24.1248 16.1077C24.1632 16.0966 24.2019 16.0851 24.2419 16.074L24.304 16.0567C24.3457 16.0448 24.3907 16.0329 24.4356 16.0214L24.4953 16.0062L24.6419 15.9696L24.6994 15.9564C24.7523 15.9437 24.8052 15.9318 24.8603 15.9194L24.9177 15.9083C24.9748 15.896 25.0319 15.8837 25.0915 15.8717L25.1486 15.8606C25.2094 15.8487 25.2707 15.8372 25.3344 15.8257L25.3927 15.8154C25.4574 15.8039 25.5223 15.7928 25.5894 15.7821L25.6502 15.7727C25.7181 15.762 25.787 15.7513 25.8585 15.7414L25.9219 15.7328C25.9931 15.7229 26.0653 15.7135 26.139 15.704L26.2065 15.6962C26.2806 15.6876 26.3556 15.6789 26.4328 15.6707L26.5044 15.6637C26.5815 15.6559 26.659 15.6485 26.7386 15.6419L26.8169 15.6354L27.0577 15.6173L27.1436 15.6119C27.2244 15.607 27.3061 15.6021 27.3894 15.5979L27.4844 15.5938C27.5678 15.5903 27.6511 15.587 27.7344 15.584L27.8394 15.5815C27.9228 15.579 28.007 15.5773 28.0923 15.5762H28.2086C28.304 15.5762 28.3998 15.5762 28.4978 15.5762H28.5056C29.059 15.5733 29.5669 15.5918 30.0348 15.6255C30.6099 15.6654 31.1822 15.7375 31.749 15.8413C33.5115 16.1702 34.2965 16.6878 34.3044 16.6931C34.2209 16.5522 34.1288 16.4164 34.0286 16.2866C33.9727 16.2138 33.9169 16.1435 33.8619 16.081C33.8411 16.0641 33.5385 15.8446 32.9415 15.5914C32.084 15.2279 30.6186 14.795 28.504 14.795C26.3894 14.795 24.9261 15.2271 24.0686 15.5905C23.4703 15.8438 23.1669 16.0641 23.1461 16.081C23.0927 16.1414 23.0361 16.2126 22.9794 16.2866Z" fill="#FF3E39"/>
<path d="M15.2754 12.8189C15.4582 12.6074 15.6716 12.4237 15.9087 12.2737L15.9125 12.2713L15.9741 12.233L15.9841 12.2269L16.0441 12.1915L16.0591 12.1829L16.1175 12.1508L16.1379 12.1397L16.1946 12.1105L16.2204 12.0978L16.2758 12.0715L16.3062 12.0571L16.3608 12.0332L16.3958 12.018L16.4492 11.9966L16.4908 11.981L16.5417 11.9625L16.5833 11.9469L16.6354 11.93L16.6837 11.9148L16.7354 11.8996L16.7871 11.8852L16.8387 11.8721C16.8571 11.8671 16.8758 11.8626 16.8946 11.8585L16.9462 11.847L17.005 11.8351L17.0571 11.8256C17.0775 11.8219 17.0987 11.8182 17.1191 11.8153L17.1716 11.8075L17.2366 11.7989L17.29 11.7931L17.3579 11.787L17.4117 11.7833L17.4825 11.7792H17.5375H17.6104H17.6679C17.6915 11.7792 17.7153 11.7792 17.7391 11.7792C17.763 11.7792 17.783 11.78 17.7992 11.7816L17.8721 11.7853L17.9337 11.7903L18.0079 11.7968L18.0721 11.8042L18.1475 11.8137L18.2133 11.8236L18.2904 11.8363L18.3587 11.8491L18.4367 11.8647L18.5075 11.8807L18.5862 11.8992L18.66 11.9185C18.6862 11.9255 18.7125 11.9325 18.7391 11.9403C18.7658 11.9481 18.79 11.9551 18.8158 11.9629L18.8954 11.9876L18.975 12.0143C19.0017 12.0234 19.0283 12.0324 19.0554 12.0423L19.1387 12.0731L19.2187 12.1039C19.2475 12.115 19.2763 12.127 19.3049 12.1389C19.3337 12.1508 19.3587 12.1611 19.3858 12.173C19.4129 12.1849 19.4445 12.1989 19.4746 12.2141L19.5579 12.2511L19.65 12.2955C19.6771 12.3087 19.7042 12.3218 19.7333 12.3366C19.7625 12.3514 19.7967 12.3695 19.8288 12.3864C19.8608 12.4032 19.8829 12.4143 19.91 12.4295C19.9371 12.4448 19.9759 12.4657 20.0087 12.4842C20.0416 12.5027 20.0634 12.5146 20.092 12.5307C20.1258 12.55 20.1596 12.5718 20.1937 12.5911L20.277 12.6404C20.3121 12.6618 20.3471 12.6844 20.3821 12.707C20.4096 12.7243 20.4371 12.7416 20.4654 12.7597C20.5013 12.7831 20.5375 12.8074 20.5738 12.832L20.657 12.8875L20.7683 12.966L20.8516 13.0252L20.9583 13.1054C20.9862 13.126 21.0137 13.1465 21.0416 13.1675C21.0809 13.1975 21.12 13.2283 21.1596 13.2596C21.187 13.2814 21.215 13.3007 21.2429 13.3249C21.2845 13.357 21.3229 13.3903 21.3634 13.4232C21.3912 13.4462 21.4191 13.4688 21.4467 13.4927C21.4883 13.5264 21.5299 13.5622 21.5717 13.5975C21.6 13.6218 21.6283 13.6456 21.655 13.6707C21.6966 13.7069 21.7383 13.7447 21.78 13.7821L21.8666 13.8594C21.9084 13.898 21.95 13.9383 21.9941 13.9778L22.0816 14.06C22.1233 14.1011 22.1675 14.1422 22.2104 14.1833C22.2404 14.2125 22.2699 14.2405 22.3 14.2701C22.3416 14.3112 22.3867 14.3568 22.43 14.4004C22.4609 14.4312 22.4912 14.4613 22.5221 14.4929C22.5637 14.5365 22.6083 14.5825 22.6517 14.6273C22.6833 14.6611 22.715 14.6931 22.7475 14.7272C22.7891 14.7716 22.8309 14.8181 22.8725 14.8637C22.9066 14.9003 22.9404 14.9361 22.975 14.9739C23.0096 15.0117 23.052 15.0594 23.0904 15.1026C23.1287 15.1458 23.1679 15.1881 23.2071 15.2325L23.2666 15.3012C23.3245 15.3673 23.3824 15.4335 23.4413 15.5022C23.6978 15.1013 24.044 14.7638 24.4533 14.5155C23.13 13.1757 21.8575 12.2133 20.6796 11.6534C20.5808 11.6069 20.4825 11.5621 20.3854 11.521C20.3437 11.5033 20.3021 11.4865 20.2583 11.4696C20.2358 11.461 20.2138 11.4511 20.1912 11.4429L20.1383 11.4231C20.09 11.4051 20.0416 11.387 19.9937 11.3705C19.3796 11.1563 18.795 11.0626 18.2475 11.0943C17.752 11.124 17.2689 11.2586 16.8308 11.4889C16.275 11.7773 15.7565 12.2206 15.2754 12.8189Z" fill="#FF3E39"/>
<path d="M32.0451 25.5721C32.6701 25.9553 33.5184 25.7933 34.1975 25.235C34.4286 25.0436 34.6293 24.8191 34.793 24.569C34.8059 24.5497 34.8192 24.5304 34.8317 24.5102C35.5251 23.4068 35.4022 22.0929 34.5567 21.5757C34.5338 21.5617 34.5109 21.5489 34.4875 21.5346C33.6442 21.0824 32.4459 21.5621 31.7704 22.636C31.7559 22.659 31.7421 22.682 31.7288 22.7054C31.083 23.7957 31.2176 25.0661 32.0451 25.5721Z" fill="#18171F"/>
<path d="M41.4905 20.397C42.7601 22.566 43.5518 22.931 43.5738 22.9413C43.6805 18.8651 41.8955 15.788 40.933 14.4358C37.9734 15.1174 40.2 18.193 41.4905 20.397Z" fill="#18171F"/>
<path d="M38.0806 15.0983C38.2056 14.9503 38.3419 14.7973 38.4931 14.6399C38.3447 14.7829 38.2069 14.936 38.0806 15.0983Z" fill="#18171F"/>
<path d="M30.1929 41.2375C30.1474 41.114 30.0588 41.0105 29.9429 40.9456C29.9267 40.9357 29.9096 40.9267 29.8925 40.9176L29.8667 40.9058L29.8379 40.8922C29.8235 40.8859 29.8085 40.8801 29.7929 40.8749L29.7808 40.8703C29.7617 40.8634 29.7417 40.8572 29.7216 40.8515C29.5946 40.8158 29.4623 40.802 29.3304 40.8104H29.3275C29.3087 40.8104 29.2896 40.8133 29.2709 40.8153H29.2588L29.2125 40.8222L29.19 40.8259L29.155 40.8333L29.1217 40.8404L29.0984 40.8469C29.0834 40.8511 29.0688 40.8547 29.0566 40.8597L29.0442 40.8638C29.0262 40.8696 29.0084 40.8757 28.9904 40.8827C28.8815 40.9228 28.7826 40.985 28.6998 41.0654C28.617 41.1458 28.5523 41.2426 28.51 41.3493C28.3704 40.9909 28.0155 40.8231 27.6646 40.8074C27.3805 40.796 27.0996 40.8831 26.9375 41.0508C26.8859 41.1033 26.8467 41.1665 26.823 41.2358C26.7817 41.3446 26.7715 41.4624 26.7936 41.5765C26.8156 41.6905 26.869 41.7963 26.9479 41.8825C27.0146 41.9579 27.0938 42.0216 27.1821 42.0708C27.604 42.2259 28.051 42.3038 28.5013 42.3006H28.5213C28.97 42.3044 29.4155 42.2268 29.8359 42.0716C29.8763 42.0515 30.3762 41.7744 30.1929 41.2375Z" fill="#FF9C9C"/>
<path d="M42.9776 24.7518C42.9967 24.7971 43.0304 24.8349 43.0734 24.8596C43.1163 24.8842 43.1663 24.8944 43.2157 24.8885C43.2651 24.8826 43.3111 24.8609 43.3468 24.8269C43.3826 24.7928 43.4061 24.7481 43.4138 24.6996C43.5056 24.118 43.5593 23.5311 43.5747 22.9425C43.5504 22.9322 42.7588 22.5672 41.4913 20.3982C40.1996 18.1942 37.9742 15.1187 40.9359 14.437C40.8834 14.3639 40.8338 14.2952 40.7867 14.2315C40.6534 14.0514 40.462 13.9214 40.244 13.8627C40.026 13.8039 39.7942 13.8201 39.5867 13.9083C39.1821 14.084 38.8132 14.3307 38.498 14.6364L38.4947 14.6397C38.3433 14.7972 38.2067 14.9501 38.0821 15.0981C38.0799 15.1003 38.0779 15.1028 38.0763 15.1055C37.4662 15.8866 37.1596 16.7911 37.0175 17.328C36.984 17.4568 36.9969 17.5932 37.0538 17.7137C37.1107 17.8343 37.2082 17.9318 37.3296 17.9894C37.8205 18.228 38.2853 18.5156 38.7167 18.8478C41.0208 20.607 42.4171 23.4251 42.9776 24.7518Z" fill="#DBBDBF"/>
<path d="M45.1802 23.97C45.1345 24.0239 45.0819 24.0716 45.0235 24.1118C44.9446 24.1652 44.8545 24.2009 44.76 24.2163C44.6655 24.2316 44.5687 24.2263 44.4765 24.2006C43.6903 24.0144 43.5744 22.9434 43.5744 22.9434C43.5591 23.532 43.5053 24.1189 43.4136 24.7005C43.4059 24.749 43.3824 24.7937 43.3466 24.8278C43.3109 24.8619 43.2648 24.8836 43.2154 24.8894C43.1661 24.8953 43.1161 24.8852 43.0731 24.8605C43.0302 24.8358 42.9965 24.798 42.9774 24.7527C42.4149 23.4261 41.019 20.6079 38.7161 18.8504C38.794 18.9458 44.116 25.473 43.4244 33.2332C43.4127 33.3659 43.3981 33.4967 43.3827 33.6266C43.3585 33.8215 43.3308 34.0133 43.2994 34.2021C43.4597 34.1503 43.6235 34.1091 43.7894 34.0788C44.4369 33.9621 45.0761 34.0583 45.8627 34.5311C45.8807 34.3279 45.8918 34.1298 45.9003 33.9366C45.9106 33.6804 45.9144 33.4334 45.9119 33.1994C45.8873 31.1135 45.424 29.5142 45.4194 29.4994C45.4148 29.4846 45.4127 29.4678 45.4094 29.4522C45.4013 29.4135 45.3975 29.3741 45.3982 29.3346C45.3982 29.319 45.406 29.0818 45.4073 28.6711C45.4052 27.7687 45.3769 26.0297 45.1802 23.97Z" fill="#A50400"/>
<path d="M30.7633 35.9839C30.6987 36.0394 30.632 36.0928 30.5625 36.1442C30.5279 36.1697 30.4929 36.1948 30.4571 36.2195C30.0104 36.5276 29.4966 36.7277 28.957 36.8036V38.1418C29.3737 38.5394 30.2883 39.1741 32.0346 39.4216C34.3091 39.7439 35.1562 38.2824 35.1562 38.2824C35.1562 38.2824 34.2358 39.26 32.2187 38.9813C30.2016 38.7025 29.6591 38.0621 29.5883 37.8059C29.5175 37.5498 29.5883 37.0026 29.5883 37.0026C29.5883 37.0026 31.5987 36.4871 31.7437 34.3238C31.6725 34.9072 31.3104 35.5135 30.7633 35.9839Z" fill="#DBBDBF"/>
<path d="M40.0233 11.8388C40.6879 11.9699 41.2896 12.3149 41.7341 12.8197C41.2545 12.2219 40.7341 11.7779 40.177 11.4889C39.739 11.2585 39.2558 11.1239 38.7603 11.0943C38.2132 11.0626 37.6286 11.1563 37.0145 11.3705C36.9666 11.387 36.9182 11.4051 36.87 11.4232C36.8524 11.4297 36.8345 11.4359 36.817 11.4429C36.7995 11.4499 36.785 11.4556 36.769 11.4618C36.6707 11.5009 36.5716 11.544 36.4716 11.5872C36.4395 11.6016 36.4075 11.6164 36.3757 11.6316C35.1845 12.1862 33.8957 13.158 32.5549 14.5155C32.9642 14.7638 33.3105 15.1014 33.567 15.5022C36.5058 12.062 38.6611 11.565 40.0233 11.8388Z" fill="#FF3E39"/>
<path d="M28.5075 40.6575H28.5033C27.045 40.1403 26.2696 41.0991 26.0908 41.3515C26.3933 41.6686 26.7642 41.9144 27.1762 42.0705C27.0884 42.0213 27.0098 41.9576 26.9438 41.8823C26.8649 41.7961 26.8115 41.6903 26.7894 41.5762C26.7674 41.4622 26.7775 41.3443 26.8187 41.2355C26.8426 41.1663 26.8817 41.1031 26.9333 41.0505C27.095 40.882 27.3762 40.7944 27.6605 40.8072C28.0112 40.8228 28.3662 40.9906 28.5058 41.349C28.5482 41.2423 28.6128 41.1455 28.6956 41.0651C28.7784 40.9848 28.8774 40.9225 28.9863 40.8825C29.0042 40.8754 29.0221 40.8692 29.04 40.8635L29.0525 40.8594C29.0666 40.8544 29.0813 40.8507 29.0942 40.8467L29.1175 40.8401L29.1508 40.8331L29.1859 40.8257L29.2083 40.822L29.2546 40.815H29.2666C29.2854 40.815 29.3045 40.8113 29.3233 40.81H29.3263C29.4581 40.8017 29.5904 40.8156 29.7175 40.8512C29.7374 40.8569 29.7592 40.8631 29.7767 40.8701L29.7888 40.8746C29.804 40.8801 29.819 40.8859 29.8337 40.8919L29.8625 40.9054L29.8883 40.9173C29.9054 40.9264 29.9225 40.9355 29.9387 40.9454C30.0546 41.0102 30.1432 41.1137 30.1888 41.2372C30.3704 41.7742 29.8704 42.0512 29.8304 42.0722C30.2426 41.9162 30.6137 41.6704 30.9163 41.3532C30.7413 41.0991 29.9662 40.1403 28.5075 40.6575Z" fill="#E06E6E"/>
<path d="M18.3709 43.8297C19.3141 44.2787 20.2927 44.6513 21.2972 44.9438C22.5729 45.3148 23.8785 45.5774 25.1996 45.7287C25.7311 45.7917 26.2726 45.839 26.8246 45.8705C27.2913 45.8979 27.7652 45.9134 28.2463 45.9169C28.333 45.9169 28.4192 45.9169 28.5059 45.9169H28.543C28.738 45.9169 28.9321 45.9169 29.1263 45.9108C29.1905 45.9108 29.2513 45.9066 29.3171 45.9051C29.8643 45.8903 30.403 45.861 30.933 45.8175C30.9884 45.8129 31.043 45.8072 31.0997 45.8018L31.2459 45.7879L31.3767 45.7756C31.4246 45.7714 31.473 45.7673 31.5205 45.762C34.6284 45.433 37.4038 44.5849 39.7221 43.2673H39.725H39.7283C39.7701 43.2448 39.8067 43.2213 39.8459 43.1982L39.9255 43.1514C40.7351 42.6768 41.4996 42.131 42.2097 41.5206C42.7303 41.073 43.2177 40.5889 43.6679 40.0722C43.7188 40.013 43.77 39.9542 43.8201 39.8946C44.1215 39.535 44.3903 39.1498 44.623 38.7434C44.9514 38.1645 45.2143 37.5517 45.4071 36.9161C45.6112 36.2459 45.7519 35.5587 45.8275 34.863C45.8386 34.7633 45.8487 34.6645 45.8576 34.5666C45.8576 34.5555 45.8576 34.5439 45.8605 34.5333C45.0738 34.0584 44.4347 33.9622 43.7872 34.0811C43.6211 34.1111 43.4575 34.1524 43.2971 34.2044C42.0618 41.3331 34.5984 44.4411 28.5055 44.4411C25.4592 44.4411 22.07 43.6644 19.2883 41.9966C16.5067 40.3287 14.3321 37.7688 13.7146 34.2027C13.5532 34.1505 13.3884 34.1094 13.2213 34.0794C12.575 33.963 11.9363 34.0601 11.1509 34.5341C11.1509 34.5448 11.1534 34.5563 11.1542 34.5674C11.1631 34.6652 11.1731 34.7641 11.1842 34.8638C11.2597 35.5592 11.4004 36.2463 11.6046 36.9161C11.7295 37.3242 11.8826 37.7234 12.063 38.1107C12.1584 38.3164 12.2621 38.5177 12.3759 38.7175C12.3959 38.753 12.4175 38.7883 12.4375 38.8236C12.6588 39.1997 12.9109 39.5572 13.1913 39.8926C14.5605 41.5206 16.3117 42.8435 18.3709 43.8297Z" fill="#DBBDBF"/>
<path d="M35.1555 38.2811C35.1555 38.2811 34.3083 39.7426 32.0338 39.4202C30.2875 39.1736 29.3734 38.5379 28.9563 38.1405V36.8023C29.4957 36.7263 30.0096 36.5263 30.4563 36.218C30.4921 36.1934 30.5271 36.1684 30.5617 36.1428C30.6313 36.0915 30.6979 36.038 30.7625 35.9825C31.3096 35.5122 31.6716 34.9058 31.7413 34.3216C31.7498 34.2534 31.754 34.1848 31.7541 34.1161C31.7541 32.856 30.2996 31.8348 28.5041 31.8348C26.71 31.8348 25.2542 32.856 25.2542 34.1161C25.2543 34.1848 25.2585 34.2534 25.2666 34.3216C25.3367 34.9058 25.6988 35.5138 26.2459 35.9825C26.31 36.038 26.3771 36.0915 26.4463 36.1428C26.4808 36.1684 26.5162 36.1934 26.5521 36.218C26.9987 36.5263 27.5125 36.7263 28.0521 36.8023V38.1405C27.6354 38.5379 26.7188 39.1728 24.9742 39.4202C22.7 39.7426 21.8529 38.2811 21.8529 38.2811C21.8529 38.2811 21.6292 40.4961 24.3213 40.5146H24.3704C24.5241 40.9471 24.7431 41.3541 25.02 41.7221C25.5825 42.4621 26.645 43.3479 28.5021 43.3479C30.3613 43.3479 31.4217 42.4636 31.9842 41.7221C32.2609 41.354 32.4799 40.947 32.6337 40.5146H32.6829C35.3796 40.4961 35.1555 38.2811 35.1555 38.2811ZM29.8354 42.0723C29.4152 42.2275 28.9695 42.3051 28.5209 42.3013H28.5021C28.0511 42.3051 27.6032 42.2275 27.1805 42.0723C27.0921 42.0231 27.013 41.9594 26.9463 41.884C27.0123 41.9594 27.0909 42.0231 27.1788 42.0723C26.7665 41.9168 26.3951 41.6716 26.0921 41.3549C26.2708 41.1025 27.0459 40.1437 28.5046 40.661H28.5088C29.9671 40.1437 30.7425 41.1025 30.9213 41.3549C30.6186 41.6716 30.2474 41.9168 29.8354 42.0723Z" fill="black"/>
<path d="M34.8756 45.1729H38.2177C38.2177 45.1729 37.7915 45.3484 37.5739 45.4306L37.5393 45.4438C37.3552 45.5134 37.1691 45.5804 36.981 45.6449C36.793 45.7092 36.6034 45.7715 36.4123 45.8314L36.3515 45.8496C36.1984 45.8973 36.0441 45.9433 35.8885 45.9877L35.7131 46.0366C35.5882 46.0712 35.4631 46.1049 35.3381 46.1373C35.2811 46.1525 35.224 46.1674 35.1661 46.1817C34.9889 46.2265 34.8111 46.2697 34.6311 46.3104L34.599 46.3174C34.427 46.356 34.2538 46.3929 34.0794 46.428C34.0227 46.4395 33.9656 46.4502 33.9085 46.4613C33.7727 46.4886 33.6362 46.5142 33.4989 46.5378L33.3302 46.5677C33.1423 46.5998 32.9552 46.6306 32.7631 46.6586C32.7631 46.6586 32.7631 46.6586 32.7606 46.6586C32.0815 46.7587 31.387 46.8341 30.6773 46.8851C29.9676 46.9361 29.2441 46.9613 28.5069 46.9608C27.0824 46.9643 25.6598 46.8628 24.2506 46.6574C24.0602 46.6294 23.8715 46.5986 23.6831 46.5665L23.5144 46.5366C23.3774 46.5124 23.2411 46.4869 23.1052 46.4601C23.0481 46.449 22.991 46.4382 22.9343 46.4268C22.7602 46.3914 22.587 46.3545 22.4148 46.3161L22.3823 46.3092C22.2027 46.268 22.0248 46.227 21.8473 46.1805C21.7898 46.1661 21.7327 46.1513 21.6756 46.1361C21.5495 46.1038 21.4246 46.0702 21.3006 46.0354L21.1256 45.9865C20.9698 45.9417 20.8152 45.896 20.6619 45.8484L20.6015 45.8302C20.2193 45.7104 19.8435 45.5812 19.4744 45.4426L19.4402 45.4294C19.2227 45.3472 19.0089 45.2604 18.7969 45.1721H22.1502C23.154 45.4219 24.1733 45.6068 25.2014 45.7258C25.7331 45.7889 26.2748 45.8361 26.8265 45.8677C27.2931 45.8951 27.767 45.9105 28.2481 45.9141C28.3348 45.9141 28.4211 45.9141 28.5077 45.9141H28.5423C28.7373 45.9141 28.9315 45.9141 29.1256 45.9079C29.1898 45.9079 29.2506 45.9039 29.3165 45.9022C29.8635 45.8874 30.4032 45.861 30.9327 45.8151C30.9877 45.8101 31.0423 45.8048 31.0994 45.799L31.2456 45.785L31.3764 45.7727C31.4244 45.7685 31.4723 45.7645 31.5198 45.7596C32.6511 45.6426 33.7725 45.4466 34.8756 45.1729Z" fill="black"/>
<path d="M44.6321 40.5603C43.18 42.2902 41.3509 43.6922 39.1804 44.7421H36.3704C37.5326 44.3627 38.6533 43.8695 39.7158 43.2699H39.7188H39.7221C39.7638 43.2473 39.8004 43.2238 39.8396 43.2008L39.9192 43.1544C40.7301 42.6791 41.4958 42.1326 42.207 41.5215C42.7278 41.0738 43.2152 40.5898 43.6654 40.0731C43.7163 40.0139 43.7675 39.9551 43.8175 39.8955C44.119 39.5359 44.3877 39.1507 44.6205 38.7444C44.9489 38.1655 45.2119 37.5526 45.4046 36.917C45.6086 36.2469 45.7493 35.5596 45.825 34.864C45.8361 34.7641 45.8461 34.6654 45.855 34.5675C45.855 34.5564 45.855 34.5449 45.8579 34.5342C45.8759 34.3311 45.8871 34.1329 45.8954 33.9397C45.9058 33.6837 45.9096 33.4365 45.9071 33.2027C45.8825 31.1166 45.4192 29.5178 45.4146 29.5027C45.41 29.4874 45.4079 29.4709 45.4046 29.4553C45.3964 29.4166 45.3927 29.3772 45.3933 29.3377C45.3933 29.3221 45.4013 29.0849 45.4025 28.6742C45.4025 27.7698 45.3767 26.0328 45.1796 23.9732C45.1537 23.7018 45.1248 23.4253 45.0925 23.1436C44.7809 20.4121 44.163 17.2671 42.95 14.7877C42.8578 14.5991 42.762 14.4147 42.6625 14.2344C42.4401 13.8265 42.1906 13.4337 41.9154 13.0586C41.9084 13.0483 41.9012 13.038 41.8937 13.0282V13.0257L41.8867 13.0158C41.8362 12.9484 41.7858 12.8834 41.735 12.8197C41.255 12.2217 40.7358 11.7781 40.1775 11.489C39.7395 11.2585 39.2563 11.1239 38.7609 11.0943C38.2137 11.0626 37.6291 11.1564 37.015 11.3706C36.9671 11.387 36.9187 11.4051 36.8704 11.4232C36.853 11.4298 36.835 11.4359 36.8175 11.4429C36.8 11.4499 36.7854 11.4557 36.7696 11.4618C36.6713 11.5009 36.5721 11.544 36.472 11.5872C36.44 11.6016 36.4079 11.6164 36.3762 11.6316C35.185 12.1862 33.8963 13.1581 32.5554 14.5156C32.7784 14.6485 32.9825 14.8099 33.1625 14.9957C33.4336 15.2764 33.6543 15.6004 33.8154 15.954C33.8454 16.021 33.8621 16.0654 33.8667 16.0774C33.8462 16.0605 33.5438 15.8414 32.9467 15.5881C32.0892 15.2247 30.6237 14.7918 28.5092 14.7918C26.3946 14.7918 24.9313 15.2239 24.0737 15.5873C23.4754 15.8406 23.1721 16.0605 23.1512 16.0774V16.0724C23.215 15.9088 23.2937 15.7513 23.3863 15.6017L23.395 15.5873V15.5853L23.4283 15.5322L23.4483 15.5006C23.7049 15.0997 24.0511 14.7622 24.4605 14.5139C23.1371 13.1741 21.8646 12.2117 20.6866 11.6518C20.5879 11.6053 20.4896 11.5605 20.3925 11.5194C20.3509 11.5017 20.3091 11.4848 20.2654 11.468C20.2429 11.4594 20.2204 11.4495 20.1983 11.4413L20.1454 11.4215C20.097 11.4034 20.0488 11.3854 20.0008 11.3689C19.3866 11.1547 18.8021 11.061 18.2546 11.0926C17.7591 11.1224 17.276 11.257 16.8379 11.4873C16.2824 11.7764 15.7633 12.22 15.2808 12.8181C15.2296 12.8818 15.1796 12.9468 15.1292 13.0142L15.1217 13.024V13.0265C14.8624 13.3776 14.6258 13.7445 14.4133 14.125C14.2919 14.3401 14.1757 14.5612 14.0646 14.7881C13.3042 16.3438 12.7779 18.1592 12.4142 19.9739C12.1988 21.0489 12.0392 22.1224 11.9238 23.1394C11.8918 23.4217 11.8628 23.6994 11.8367 23.9724C11.6379 26.0489 11.6108 27.799 11.6138 28.6948C11.6138 29.092 11.6221 29.3217 11.6225 29.3369C11.6235 29.3764 11.6199 29.4159 11.6117 29.4546C11.6083 29.4701 11.6063 29.4862 11.6017 29.5018C11.5971 29.5175 11.1333 31.1162 11.1092 33.2018C11.1063 33.4358 11.1092 33.6828 11.1208 33.939C11.1288 34.1321 11.1404 34.3303 11.1579 34.5334C11.1579 34.5441 11.1604 34.5556 11.1613 34.5667C11.1701 34.6645 11.1801 34.7633 11.1913 34.8631C11.2634 35.5588 11.4008 36.2464 11.6017 36.917C11.7267 37.3251 11.8798 37.7242 12.06 38.1117C12.1554 38.3173 12.2592 38.5187 12.3729 38.7185C12.3929 38.7539 12.4146 38.7892 12.4346 38.8245C12.6555 39.2007 12.9076 39.5582 13.1883 39.8935C14.5554 41.5231 16.3067 42.8444 18.3663 43.8311C19.104 44.1828 19.8641 44.4871 20.6417 44.7421H17.8263C15.6554 43.6922 13.8263 42.2902 12.3742 40.5603C10.8075 38.693 9.99917 36.1343 10.0408 33.1603C10.0675 31.1869 10.4513 29.6605 10.5521 29.2921C10.5388 28.7951 10.4925 26.1915 10.8604 22.9914C11.4021 18.2706 12.5467 14.7104 14.2588 12.409C15.3583 10.9311 16.6808 10.1372 18.1883 10.0505C19.6121 9.96825 21.1684 10.5233 22.8133 11.7003C24.0492 12.5846 25.0296 13.6082 25.4855 14.0901C26.2904 13.889 27.2871 13.748 28.5034 13.748C29.7195 13.748 30.7162 13.889 31.5213 14.0901C31.9771 13.6082 32.9575 12.5846 34.1933 11.7003C35.8383 10.5233 37.3945 9.96825 38.8183 10.0505C40.3254 10.1372 41.6483 10.9311 42.7475 12.409C44.46 14.7112 45.6034 18.2706 46.1463 22.9914C46.5142 26.1915 46.468 28.7951 46.4546 29.2921C46.555 29.6621 46.9392 31.1886 46.9654 33.1603C47.0059 36.1359 46.1992 38.693 44.6321 40.5603Z" fill="black"/>
<path d="M21.5979 32.8843C23.0969 32.8843 24.3121 31.3718 24.3121 29.5061C24.3121 27.6405 23.0969 26.128 21.5979 26.128C20.099 26.128 18.8838 27.6405 18.8838 29.5061C18.8838 31.3718 20.099 32.8843 21.5979 32.8843Z" fill="black"/>
<path d="M35.6798 32.8843C37.1788 32.8843 38.3939 31.3718 38.3939 29.5061C38.3939 27.6405 37.1788 26.128 35.6798 26.128C34.1807 26.128 32.9656 27.6405 32.9656 29.5061C32.9656 31.3718 34.1807 32.8843 35.6798 32.8843Z" fill="black"/>
<path d="M22.1844 29.315C22.6571 29.315 23.0402 28.8067 23.0402 28.1796C23.0402 27.5524 22.6571 27.0441 22.1844 27.0441C21.7117 27.0441 21.3286 27.5524 21.3286 28.1796C21.3286 28.8067 21.7117 29.315 22.1844 29.315Z" fill="#18171F"/>
<path d="M35.1318 29.315C35.6045 29.315 35.9876 28.8067 35.9876 28.1796C35.9876 27.5524 35.6045 27.0441 35.1318 27.0441C34.6591 27.0441 34.2759 27.5524 34.2759 28.1796C34.2759 28.8067 34.6591 29.315 35.1318 29.315Z" fill="#18171F"/>
<path d="M39.1823 44.7385L38.2169 45.1721H34.8748L36.3722 44.7385" fill="black"/>
<path d="M18.7931 45.1721L17.8276 44.7385H20.6452L22.1468 45.1721" fill="black"/>
<path d="M31.6577 32.2696C30.9969 31.0133 30.2086 30.3843 29.5857 30.0702C28.9628 29.7561 28.5049 29.7561 28.5049 29.7561C28.5049 29.7561 26.6715 29.7561 25.3519 32.2696C23.9811 34.8781 21.1049 36.8946 17.6132 35.8085C15.8378 35.2576 14.7211 34.5307 13.7136 34.2019C14.3311 37.7666 16.5053 40.3274 19.2878 41.9928C22.0703 43.6582 25.4586 44.4385 28.5049 44.4385C34.5974 44.4385 42.0607 41.3318 43.2966 34.2019C42.289 34.5275 41.1716 35.2564 39.3969 35.8085C35.9049 36.8958 33.0286 34.8793 31.6577 32.2696ZM32.6857 40.5136H32.6366C32.4827 40.946 32.2637 41.353 31.987 41.7211C31.4245 42.4611 30.3619 43.347 28.5049 43.347C26.6457 43.347 25.5853 42.4627 25.0228 41.7211C24.7466 41.353 24.5283 40.946 24.3753 40.5136H24.3261C21.6341 40.4951 21.8578 38.2801 21.8578 38.2801C21.8578 38.2801 22.7777 39.2577 24.7949 38.9789C26.8119 38.7002 27.3548 38.0597 27.4257 37.8036C27.4965 37.5475 27.4257 37.0003 27.4257 37.0003C27.4257 37.0003 25.4153 36.4848 25.2703 34.3215C25.2621 34.2533 25.2579 34.1847 25.2578 34.1159C25.2578 32.8559 26.7124 31.8347 28.5078 31.8347C30.302 31.8347 31.7578 32.8559 31.7578 34.1159C31.7576 34.1847 31.7534 34.2533 31.7449 34.3215C31.5998 36.4848 29.5894 37.0003 29.5894 37.0003C29.5894 37.0003 29.5186 37.5475 29.5894 37.8036C29.6603 38.0597 30.2028 38.6998 32.2199 38.9789C34.2369 39.2581 35.1574 38.2801 35.1574 38.2801C35.1574 38.2801 35.3778 40.4964 32.6857 40.5149V40.5136Z" fill="white"/>
<path d="M26.9331 41.0531C27.0952 40.8854 27.376 40.7983 27.6602 40.8098C27.376 40.797 27.0947 40.8846 26.9331 41.0531Z" fill="black"/>
<path d="M45.0935 23.1428C44.7819 20.4113 44.164 17.2663 42.951 14.7869C42.8588 14.5984 42.763 14.4139 42.6635 14.2336C42.441 13.8258 42.1914 13.4331 41.9165 13.0578C41.9094 13.0475 41.9023 13.0372 41.8948 13.0274V13.0249L41.8873 13.015C41.8373 12.9482 41.7867 12.8828 41.7357 12.8189C41.2907 12.3134 40.6882 11.9681 40.0228 11.8372C38.6606 11.5646 36.5053 12.0617 33.5644 15.5018C33.6506 15.6334 33.7273 15.7708 33.794 15.9129L33.8123 15.9541C33.8423 16.0211 33.859 16.0655 33.8635 16.0774C33.9173 16.1407 33.9727 16.2102 34.0302 16.2829C34.1304 16.4128 34.2225 16.5486 34.3061 16.6895C34.3061 16.6895 33.5223 16.1674 31.7502 15.8369C31.1835 15.7331 30.6112 15.661 30.0361 15.6211C29.5681 15.5873 29.0602 15.5688 28.5069 15.5717H28.499C28.401 15.5717 28.3052 15.5717 28.2098 15.5717H28.0936C28.008 15.5717 27.9237 15.5735 27.8406 15.5771L27.7356 15.5795C27.6523 15.5823 27.569 15.5856 27.4857 15.5894L27.3907 15.5935C27.3073 15.5976 27.224 15.6025 27.1448 15.6075L27.059 15.6128L26.8181 15.6309L26.7398 15.6375C26.6602 15.6441 26.5827 15.6515 26.5056 15.6593L26.4339 15.6663C26.3569 15.6745 26.2819 15.6831 26.2077 15.6918L26.1403 15.6996C26.0664 15.709 25.9944 15.7185 25.9232 15.7283L25.8598 15.737C25.7889 15.7468 25.7202 15.7575 25.6515 15.7682L25.5906 15.7777C25.5236 15.7884 25.4585 15.7995 25.394 15.811L25.3331 15.825C25.2694 15.8365 25.2081 15.848 25.1473 15.8599L25.0902 15.871C25.0306 15.8829 24.9736 15.8953 24.9165 15.9076L24.8594 15.9195C24.8044 15.9318 24.7515 15.9438 24.6986 15.9565L24.641 15.9697L24.4944 16.0063L24.4348 16.0215C24.3898 16.033 24.3465 16.0449 24.3031 16.0568L24.241 16.0741C24.1994 16.0852 24.1623 16.0967 24.1239 16.1078L24.059 16.1271C24.024 16.1374 23.9907 16.1481 23.9574 16.1588C23.9344 16.1658 23.9111 16.1728 23.889 16.1802L23.8035 16.2085C23.779 16.2167 23.7544 16.2246 23.7311 16.2328L23.6623 16.257C23.6361 16.2665 23.6094 16.2755 23.5844 16.285L23.5335 16.3039L23.4503 16.3356L23.419 16.3483L23.3269 16.3849L23.316 16.3894C22.8994 16.5609 22.7052 16.6912 22.7052 16.6912C22.7882 16.5514 22.8794 16.4166 22.9785 16.2875C23.0348 16.2139 23.0911 16.1436 23.1452 16.0794V16.0737C23.2089 15.9101 23.2877 15.7525 23.3802 15.603L23.3889 15.5886V15.5865C23.3998 15.5693 23.4107 15.5516 23.4223 15.5335C23.429 15.5228 23.4352 15.5125 23.4423 15.5018C23.3836 15.4332 23.3257 15.367 23.2678 15.3008L23.2081 15.2321C23.169 15.1877 23.1302 15.1454 23.0915 15.1022C23.0527 15.0591 23.0139 15.0155 22.976 14.9736C22.9381 14.9316 22.9078 14.9 22.8735 14.8634C22.8319 14.8177 22.7902 14.7713 22.7486 14.7269C22.7161 14.6928 22.6844 14.6607 22.6527 14.627C22.611 14.5822 22.5661 14.5361 22.5231 14.4925C22.4923 14.4609 22.4619 14.4309 22.431 14.4C22.3894 14.3565 22.344 14.3121 22.301 14.2697C22.2711 14.2401 22.2415 14.2122 22.2115 14.183C22.1698 14.1419 22.1252 14.1008 22.0827 14.0596L21.9952 13.9774C21.9535 13.9363 21.9119 13.8977 21.8677 13.859L21.781 13.7817C21.7394 13.7443 21.6978 13.7065 21.656 13.6703C21.6273 13.6452 21.599 13.6214 21.5727 13.5971C21.5311 13.5618 21.4894 13.526 21.4477 13.4923C21.4194 13.4685 21.3915 13.4459 21.3644 13.4228C21.3228 13.39 21.284 13.3566 21.244 13.3246C21.216 13.302 21.1882 13.281 21.1606 13.2592C21.119 13.228 21.0819 13.1971 21.0428 13.1671C21.0148 13.1458 20.9873 13.126 20.9594 13.105L20.8452 13.0199L20.7618 12.9607L20.6507 12.8822L20.5673 12.8267C20.5311 12.8021 20.4948 12.7778 20.459 12.7544C20.4314 12.7363 20.404 12.719 20.3757 12.7017C20.3406 12.6791 20.3056 12.6565 20.2707 12.6352L20.1873 12.5858C20.1531 12.5653 20.1194 12.5447 20.0857 12.5254C20.0581 12.5093 20.0311 12.4945 20.0023 12.4789C19.9736 12.4633 19.9365 12.4419 19.9035 12.4242C19.8706 12.4066 19.8494 12.3951 19.8223 12.3811C19.7952 12.3671 19.7586 12.3474 19.7269 12.3313C19.6952 12.3153 19.6723 12.3042 19.6435 12.2902L19.5515 12.2458L19.4681 12.2088C19.4382 12.1953 19.4086 12.1817 19.3794 12.1677C19.3502 12.1537 19.3252 12.1447 19.2986 12.1336C19.2719 12.1225 19.2411 12.1097 19.2123 12.0986L19.1323 12.0678L19.049 12.037C19.0219 12.0271 18.9952 12.0181 18.9686 12.009L18.889 11.9823L18.8094 11.9576C18.7836 11.9498 18.7581 11.942 18.7327 11.935C18.7073 11.928 18.6798 11.9202 18.6536 11.9132L18.5798 11.8939L18.5011 11.8754L18.4302 11.8594L18.3523 11.8438L18.284 11.831L18.2069 11.8183L18.1411 11.8084L18.0656 11.799L18.0015 11.7916L17.9273 11.785L17.8656 11.78L17.7927 11.7763C17.7727 11.7763 17.7527 11.7755 17.7327 11.7739C17.7127 11.7722 17.689 11.7722 17.6615 11.7739H17.6123H17.5394H17.4844L17.4136 11.778L17.3598 11.7817L17.2919 11.7878L17.2386 11.7936L17.1736 11.8022L17.1211 11.81C17.1002 11.8129 17.0794 11.8166 17.059 11.8203L17.0069 11.8298L16.9481 11.8417L16.8965 11.8532C16.8777 11.8573 16.859 11.8618 16.8406 11.8668L16.789 11.8799L16.7373 11.8943L16.6856 11.9095L16.6373 11.9248L16.5852 11.9416L16.5436 11.9572L16.4911 11.9766L16.4494 11.9922L16.3961 12.0136L16.3611 12.0288L16.3065 12.0526L16.2761 12.067L16.2206 12.0933L16.1948 12.1061L16.1381 12.1352L16.1177 12.1463L16.0594 12.1784L16.0444 12.187L15.9844 12.2224L15.9744 12.2286L15.9127 12.2668L15.909 12.2693C15.6718 12.4193 15.4584 12.6029 15.2756 12.8144C15.2243 12.878 15.1737 12.9433 15.124 13.0105L15.1161 13.0204V13.0228C14.8568 13.3739 14.6202 13.7408 14.4077 14.1213C14.2863 14.3365 14.1701 14.5575 14.059 14.7844C13.2986 16.3401 12.7723 18.1576 12.4086 19.9702C12.1931 21.0452 12.0336 22.1187 11.9181 23.1357C11.8862 23.418 11.8572 23.6957 11.8311 23.9687C11.8767 24.0225 11.9294 24.0703 11.9877 24.1105C12.0667 24.1639 12.1566 24.1994 12.2511 24.2148C12.3455 24.2301 12.4422 24.2248 12.5344 24.1993C13.3211 24.0131 13.4369 22.9421 13.4369 22.9421C13.3306 18.8659 15.1156 15.7888 16.0781 14.4366C16.1306 14.3635 16.1802 14.2948 16.2273 14.2311C16.3606 14.051 16.5519 13.9209 16.7699 13.8621C16.988 13.8034 17.2198 13.8196 17.4273 13.9079C17.8319 14.0837 18.2007 14.3304 18.5161 14.636L18.5194 14.6393C18.6676 14.7824 18.8054 14.9356 18.9319 15.0977C18.934 15.1 18.936 15.1025 18.9377 15.1051C19.5473 15.8862 19.8544 16.7907 19.996 17.3276C20.0295 17.4564 20.0169 17.5927 19.96 17.7133C19.9032 17.8338 19.8058 17.9313 19.6844 17.9891C19.1933 18.2276 18.7284 18.5152 18.2969 18.8474C18.219 18.9428 12.8969 25.4701 13.5886 33.2302C13.6002 33.363 13.6148 33.4937 13.6302 33.6236C13.6544 33.8185 13.6823 34.0109 13.7136 34.1992C14.7211 34.5248 15.8386 35.2537 17.6131 35.8057C21.1048 36.892 23.981 34.8755 25.3519 32.267C26.6723 29.7538 28.5048 29.7534 28.5048 29.7534C28.5048 29.7534 28.9632 29.7534 29.5856 30.0675C30.2081 30.3815 30.9969 31.0105 31.6577 32.267C33.0285 34.8755 35.9048 36.892 39.3964 35.8057C41.1719 35.2537 42.2885 34.5248 43.296 34.1992C43.3285 34.01 43.3564 33.8182 43.3794 33.6236C43.3957 33.4937 43.4102 33.363 43.421 33.2302C44.1136 25.4701 38.7915 18.9428 38.7128 18.8474C38.2813 18.5152 37.8165 18.2276 37.3256 17.9891C37.2042 17.9314 37.1067 17.8339 37.0498 17.7133C36.9929 17.5928 36.9801 17.4564 37.0135 17.3276C37.1553 16.7886 37.4623 15.8862 38.0723 15.1051C38.0739 15.1024 38.0759 15.0999 38.0781 15.0977C38.2045 14.9355 38.3423 14.7823 38.4907 14.6393L38.494 14.636C38.8094 14.3307 39.1785 14.0844 39.5831 13.9092C39.7907 13.8209 40.0225 13.8048 40.2405 13.8635C40.4585 13.9222 40.6498 14.0522 40.7831 14.2323C40.8302 14.2956 40.8798 14.3643 40.9323 14.4379C41.8948 15.7917 43.6798 18.8672 43.5732 22.9433C43.5732 22.9433 43.689 24.0143 44.4752 24.2005C44.5675 24.2261 44.6642 24.2314 44.7588 24.216C44.8533 24.2007 44.9433 24.1651 45.0223 24.1117C45.0807 24.0715 45.1334 24.0238 45.179 23.9699C45.1548 23.699 45.1248 23.4218 45.0935 23.1428Z" fill="#E70C00"/>
<path d="M22.1776 24.5106C22.3506 24.788 22.5683 25.0356 22.8222 25.2437C23.4993 25.7954 24.3409 25.9541 24.9638 25.5725C25.7917 25.0664 25.9263 23.7961 25.2805 22.7075C25.2668 22.6841 25.2535 22.6611 25.2388 22.638C24.5672 21.5691 23.3751 21.0889 22.5305 21.5305C22.5027 21.5451 22.4761 21.5602 22.4505 21.5761C21.6072 22.0933 21.4843 23.4073 22.1776 24.5106Z" fill="white"/>
<path d="M15.5203 20.397C16.812 18.193 19.0374 15.1174 16.0757 14.4358C15.1132 15.7896 13.3282 18.8651 13.4345 22.9413C13.4582 22.931 14.2499 22.5655 15.5203 20.397Z" fill="white"/>
<path d="M18.5178 14.6399C18.6687 14.7972 18.8062 14.95 18.9303 15.0983C18.8039 14.9361 18.666 14.783 18.5178 14.6399Z" fill="white"/>
<path d="M18.2958 18.8501C18.7273 18.5178 19.1922 18.2302 19.6833 17.9917C19.8047 17.9339 19.9021 17.8365 19.9589 17.7159C20.0157 17.5953 20.0284 17.459 19.9949 17.3302C19.8533 16.7912 19.5462 15.8889 18.9366 15.1077C18.9349 15.1051 18.9329 15.1026 18.9308 15.1003C18.8063 14.9523 18.6688 14.7995 18.5183 14.642L18.5149 14.6387C18.1996 14.333 17.8307 14.0863 17.4262 13.9106C17.2187 13.8222 16.9869 13.8061 16.7688 13.8648C16.5508 13.9235 16.3595 14.0536 16.2262 14.2337C16.1791 14.297 16.1295 14.3657 16.077 14.4393C19.0387 15.1209 16.812 18.1964 15.5216 20.4004C14.2512 22.5686 13.4595 22.9341 13.4358 22.9443C13.4513 23.5328 13.505 24.1197 13.5966 24.7015C13.6043 24.7499 13.6278 24.7946 13.6636 24.8287C13.6993 24.8628 13.7454 24.8844 13.7947 24.8904C13.8441 24.8963 13.8941 24.8861 13.9371 24.8614C13.98 24.8368 14.0137 24.7989 14.0329 24.7536C14.5958 23.427 15.9912 20.6088 18.2945 18.8513L18.2958 18.8501Z" fill="#DBBDBF"/>
<path d="M13.2219 34.0788C13.389 34.1087 13.5538 34.1499 13.7152 34.2021C13.6823 34.013 13.6544 33.8206 13.6319 33.6266C13.6156 33.4967 13.6011 33.3659 13.5902 33.2332C12.8952 25.473 18.2173 18.9458 18.2935 18.8504C15.9886 20.6079 14.5948 23.426 14.0319 24.7528C14.0127 24.798 13.979 24.8358 13.9361 24.8605C13.8931 24.8852 13.8431 24.8953 13.7937 24.8895C13.7444 24.8836 13.6983 24.8619 13.6626 24.8278C13.6268 24.7937 13.6033 24.749 13.5956 24.7005C13.504 24.1188 13.4503 23.532 13.4348 22.9435C13.4348 22.9435 13.319 24.0143 12.5323 24.2006C12.4401 24.2263 12.3434 24.2316 12.249 24.2163C12.1545 24.2009 12.0646 24.1653 11.9856 24.1118C11.9273 24.0716 11.8746 24.0239 11.829 23.9699C11.6302 26.0465 11.6036 27.7966 11.606 28.6924C11.606 29.0895 11.6144 29.3194 11.6152 29.3346C11.6159 29.3741 11.6121 29.4135 11.604 29.4521C11.6006 29.4678 11.5985 29.4838 11.594 29.4994C11.5894 29.515 11.126 31.1139 11.1015 33.1994C11.099 33.4333 11.1015 33.6804 11.1131 33.9365C11.1211 34.1298 11.1327 34.3279 11.1502 34.531C11.9369 34.0583 12.5756 33.9612 13.2219 34.0788Z" fill="#A50400"/>
<path d="M24.9779 39.4224C26.7246 39.1758 27.6388 38.5402 28.0559 38.1426V36.8044C27.5163 36.7285 27.0025 36.5284 26.5559 36.2202C26.52 36.1956 26.4846 36.1705 26.4501 36.145C26.3809 36.0937 26.3138 36.0402 26.2496 35.9847C25.7025 35.5143 25.3404 34.908 25.2704 34.3238C25.4155 36.4871 27.4259 37.0026 27.4259 37.0026C27.4259 37.0026 27.4967 37.5498 27.4259 37.8059C27.355 38.0621 26.8125 38.7022 24.7951 38.9812C22.7775 39.2604 21.8579 38.2824 21.8579 38.2824C21.8579 38.2824 22.7038 39.7447 24.9779 39.4224Z" fill="#DBBDBF"/>
<path d="M22.9794 16.2866C22.8802 16.4156 22.7889 16.5505 22.7061 16.6903C22.9004 16.5726 23.1048 16.4719 23.3169 16.3893L23.3277 16.3848L23.4198 16.3482L23.451 16.3355L23.5344 16.3038L23.5853 16.2849C23.6102 16.2755 23.6369 16.2664 23.6632 16.257L23.7319 16.2327C23.7553 16.2245 23.7798 16.2167 23.8044 16.2084L23.8899 16.1801C23.9119 16.1727 23.9353 16.1657 23.9581 16.1587C23.9915 16.148 24.0248 16.1373 24.0598 16.127L24.1248 16.1077C24.1632 16.0966 24.2019 16.0851 24.2419 16.074L24.304 16.0567C24.3457 16.0448 24.3907 16.0329 24.4356 16.0214L24.4953 16.0062L24.6419 15.9696L24.6994 15.9564C24.7523 15.9437 24.8052 15.9318 24.8603 15.9194L24.9177 15.9083C24.9748 15.896 25.0319 15.8837 25.0915 15.8717L25.1486 15.8606C25.2094 15.8487 25.2707 15.8372 25.3344 15.8257L25.3927 15.8154C25.4574 15.8039 25.5223 15.7928 25.5894 15.7821L25.6502 15.7727C25.7181 15.762 25.787 15.7513 25.8585 15.7414L25.9219 15.7328C25.9931 15.7229 26.0653 15.7135 26.139 15.704L26.2065 15.6962C26.2806 15.6876 26.3556 15.6789 26.4328 15.6707L26.5044 15.6637C26.5815 15.6559 26.659 15.6485 26.7386 15.6419L26.8169 15.6354L27.0577 15.6173L27.1436 15.6119C27.2244 15.607 27.3061 15.6021 27.3894 15.5979L27.4844 15.5938C27.5678 15.5903 27.6511 15.587 27.7344 15.584L27.8394 15.5815C27.9228 15.579 28.007 15.5773 28.0923 15.5762H28.2086C28.304 15.5762 28.3998 15.5762 28.4978 15.5762H28.5056C29.059 15.5733 29.5669 15.5918 30.0348 15.6255C30.6099 15.6654 31.1822 15.7375 31.749 15.8413C33.5115 16.1702 34.2965 16.6878 34.3044 16.6931C34.2209 16.5522 34.1288 16.4164 34.0286 16.2866C33.9727 16.2138 33.9169 16.1435 33.8619 16.081C33.8411 16.0641 33.5385 15.8446 32.9415 15.5914C32.084 15.2279 30.6186 14.795 28.504 14.795C26.3894 14.795 24.9261 15.2271 24.0686 15.5905C23.4703 15.8438 23.1669 16.0641 23.1461 16.081C23.0927 16.1414 23.0361 16.2126 22.9794 16.2866Z" fill="#FF3E39"/>
<path d="M15.2754 12.8189C15.4582 12.6074 15.6716 12.4237 15.9087 12.2737L15.9125 12.2713L15.9741 12.233L15.9841 12.2269L16.0441 12.1915L16.0591 12.1829L16.1175 12.1508L16.1379 12.1397L16.1946 12.1105L16.2204 12.0978L16.2758 12.0715L16.3062 12.0571L16.3608 12.0332L16.3958 12.018L16.4492 11.9966L16.4908 11.981L16.5417 11.9625L16.5833 11.9469L16.6354 11.93L16.6837 11.9148L16.7354 11.8996L16.7871 11.8852L16.8387 11.8721C16.8571 11.8671 16.8758 11.8626 16.8946 11.8585L16.9462 11.847L17.005 11.8351L17.0571 11.8256C17.0775 11.8219 17.0987 11.8182 17.1191 11.8153L17.1716 11.8075L17.2366 11.7989L17.29 11.7931L17.3579 11.787L17.4117 11.7833L17.4825 11.7792H17.5375H17.6104H17.6679C17.6915 11.7792 17.7153 11.7792 17.7391 11.7792C17.763 11.7792 17.783 11.78 17.7992 11.7816L17.8721 11.7853L17.9337 11.7903L18.0079 11.7968L18.0721 11.8042L18.1475 11.8137L18.2133 11.8236L18.2904 11.8363L18.3587 11.8491L18.4367 11.8647L18.5075 11.8807L18.5862 11.8992L18.66 11.9185C18.6862 11.9255 18.7125 11.9325 18.7391 11.9403C18.7658 11.9481 18.79 11.9551 18.8158 11.9629L18.8954 11.9876L18.975 12.0143C19.0017 12.0234 19.0283 12.0324 19.0554 12.0423L19.1387 12.0731L19.2187 12.1039C19.2475 12.115 19.2763 12.127 19.3049 12.1389C19.3337 12.1508 19.3587 12.1611 19.3858 12.173C19.4129 12.1849 19.4445 12.1989 19.4746 12.2141L19.5579 12.2511L19.65 12.2955C19.6771 12.3087 19.7042 12.3218 19.7333 12.3366C19.7625 12.3514 19.7967 12.3695 19.8288 12.3864C19.8608 12.4032 19.8829 12.4143 19.91 12.4295C19.9371 12.4448 19.9759 12.4657 20.0087 12.4842C20.0416 12.5027 20.0634 12.5146 20.092 12.5307C20.1258 12.55 20.1596 12.5718 20.1937 12.5911L20.277 12.6404C20.3121 12.6618 20.3471 12.6844 20.3821 12.707C20.4096 12.7243 20.4371 12.7416 20.4654 12.7597C20.5013 12.7831 20.5375 12.8074 20.5738 12.832L20.657 12.8875L20.7683 12.966L20.8516 13.0252L20.9583 13.1054C20.9862 13.126 21.0137 13.1465 21.0416 13.1675C21.0809 13.1975 21.12 13.2283 21.1596 13.2596C21.187 13.2814 21.215 13.3007 21.2429 13.3249C21.2845 13.357 21.3229 13.3903 21.3634 13.4232C21.3912 13.4462 21.4191 13.4688 21.4467 13.4927C21.4883 13.5264 21.5299 13.5622 21.5717 13.5975C21.6 13.6218 21.6283 13.6456 21.655 13.6707C21.6966 13.7069 21.7383 13.7447 21.78 13.7821L21.8666 13.8594C21.9084 13.898 21.95 13.9383 21.9941 13.9778L22.0816 14.06C22.1233 14.1011 22.1675 14.1422 22.2104 14.1833C22.2404 14.2125 22.2699 14.2405 22.3 14.2701C22.3416 14.3112 22.3867 14.3568 22.43 14.4004C22.4609 14.4312 22.4912 14.4613 22.5221 14.4929C22.5637 14.5365 22.6083 14.5825 22.6517 14.6273C22.6833 14.6611 22.715 14.6931 22.7475 14.7272C22.7891 14.7716 22.8309 14.8181 22.8725 14.8637C22.9066 14.9003 22.9404 14.9361 22.975 14.9739C23.0096 15.0117 23.052 15.0594 23.0904 15.1026C23.1287 15.1458 23.1679 15.1881 23.2071 15.2325L23.2666 15.3012C23.3245 15.3673 23.3824 15.4335 23.4413 15.5022C23.6978 15.1013 24.044 14.7638 24.4533 14.5155C23.13 13.1757 21.8575 12.2133 20.6796 11.6534C20.5808 11.6069 20.4825 11.5621 20.3854 11.521C20.3437 11.5033 20.3021 11.4865 20.2583 11.4696C20.2358 11.461 20.2138 11.4511 20.1912 11.4429L20.1383 11.4231C20.09 11.4051 20.0416 11.387 19.9937 11.3705C19.3796 11.1563 18.795 11.0626 18.2475 11.0943C17.752 11.124 17.2689 11.2586 16.8308 11.4889C16.275 11.7773 15.7565 12.2206 15.2754 12.8189Z" fill="#FF3E39"/>
<path d="M32.0451 25.5721C32.6701 25.9553 33.5184 25.7933 34.1975 25.235C34.4286 25.0436 34.6293 24.8191 34.793 24.569C34.8059 24.5497 34.8192 24.5304 34.8317 24.5102C35.5251 23.4068 35.4022 22.0929 34.5567 21.5757C34.5338 21.5617 34.5109 21.5489 34.4875 21.5346C33.6442 21.0824 32.4459 21.5621 31.7704 22.636C31.7559 22.659 31.7421 22.682 31.7288 22.7054C31.083 23.7957 31.2176 25.0661 32.0451 25.5721Z" fill="white"/>
<path d="M41.4905 20.397C42.7601 22.566 43.5518 22.931 43.5738 22.9413C43.6805 18.8651 41.8955 15.788 40.933 14.4358C37.9734 15.1174 40.2 18.193 41.4905 20.397Z" fill="white"/>
<path d="M38.0806 15.0983C38.2056 14.9503 38.3419 14.7973 38.4931 14.6399C38.3447 14.7829 38.2069 14.936 38.0806 15.0983Z" fill="white"/>
<path d="M30.1929 41.2375C30.1474 41.114 30.0588 41.0105 29.9429 40.9456C29.9267 40.9357 29.9096 40.9267 29.8925 40.9176L29.8667 40.9058L29.8379 40.8922C29.8235 40.8859 29.8085 40.8801 29.7929 40.8749L29.7808 40.8703C29.7617 40.8634 29.7417 40.8572 29.7216 40.8515C29.5946 40.8158 29.4623 40.802 29.3304 40.8104H29.3275C29.3087 40.8104 29.2896 40.8133 29.2709 40.8153H29.2588L29.2125 40.8222L29.19 40.8259L29.155 40.8333L29.1217 40.8404L29.0984 40.8469C29.0834 40.8511 29.0688 40.8547 29.0566 40.8597L29.0442 40.8638C29.0262 40.8696 29.0084 40.8757 28.9904 40.8827C28.8815 40.9228 28.7826 40.985 28.6998 41.0654C28.617 41.1458 28.5523 41.2426 28.51 41.3493C28.3704 40.9909 28.0155 40.8231 27.6646 40.8074C27.3805 40.796 27.0996 40.8831 26.9375 41.0508C26.8859 41.1033 26.8467 41.1665 26.823 41.2358C26.7817 41.3446 26.7715 41.4624 26.7936 41.5765C26.8156 41.6905 26.869 41.7963 26.9479 41.8825C27.0146 41.9579 27.0938 42.0216 27.1821 42.0708C27.604 42.2259 28.051 42.3038 28.5013 42.3006H28.5213C28.97 42.3044 29.4155 42.2268 29.8359 42.0716C29.8763 42.0515 30.3762 41.7744 30.1929 41.2375Z" fill="#FF9C9C"/>
<path d="M42.9776 24.7518C42.9967 24.7971 43.0304 24.8349 43.0734 24.8596C43.1163 24.8842 43.1663 24.8944 43.2157 24.8885C43.2651 24.8826 43.3111 24.8609 43.3468 24.8269C43.3826 24.7928 43.4061 24.7481 43.4138 24.6996C43.5056 24.118 43.5593 23.5311 43.5747 22.9425C43.5504 22.9322 42.7588 22.5672 41.4913 20.3982C40.1996 18.1942 37.9742 15.1187 40.9359 14.437C40.8834 14.3639 40.8338 14.2952 40.7867 14.2315C40.6534 14.0514 40.462 13.9214 40.244 13.8627C40.026 13.8039 39.7942 13.8201 39.5867 13.9083C39.1821 14.084 38.8132 14.3307 38.498 14.6364L38.4947 14.6397C38.3433 14.7972 38.2067 14.9501 38.0821 15.0981C38.0799 15.1003 38.0779 15.1028 38.0763 15.1055C37.4662 15.8866 37.1596 16.7911 37.0175 17.328C36.984 17.4568 36.9969 17.5932 37.0538 17.7137C37.1107 17.8343 37.2082 17.9318 37.3296 17.9894C37.8205 18.228 38.2853 18.5156 38.7167 18.8478C41.0208 20.607 42.4171 23.4251 42.9776 24.7518Z" fill="#DBBDBF"/>
<path d="M45.1802 23.97C45.1345 24.0239 45.0819 24.0716 45.0235 24.1118C44.9446 24.1652 44.8545 24.2009 44.76 24.2163C44.6655 24.2316 44.5687 24.2263 44.4765 24.2006C43.6903 24.0144 43.5744 22.9434 43.5744 22.9434C43.5591 23.532 43.5053 24.1189 43.4136 24.7005C43.4059 24.749 43.3824 24.7937 43.3466 24.8278C43.3109 24.8619 43.2648 24.8836 43.2154 24.8894C43.1661 24.8953 43.1161 24.8852 43.0731 24.8605C43.0302 24.8358 42.9965 24.798 42.9774 24.7527C42.4149 23.4261 41.019 20.6079 38.7161 18.8504C38.794 18.9458 44.116 25.473 43.4244 33.2332C43.4127 33.3659 43.3981 33.4967 43.3827 33.6266C43.3585 33.8215 43.3308 34.0133 43.2994 34.2021C43.4597 34.1503 43.6235 34.1091 43.7894 34.0788C44.4369 33.9621 45.0761 34.0583 45.8627 34.5311C45.8807 34.3279 45.8918 34.1298 45.9003 33.9366C45.9106 33.6804 45.9144 33.4334 45.9119 33.1994C45.8873 31.1135 45.424 29.5142 45.4194 29.4994C45.4148 29.4846 45.4127 29.4678 45.4094 29.4522C45.4013 29.4135 45.3975 29.3741 45.3982 29.3346C45.3982 29.319 45.406 29.0818 45.4073 28.6711C45.4052 27.7687 45.3769 26.0297 45.1802 23.97Z" fill="#A50400"/>
<path d="M30.7633 35.9839C30.6987 36.0394 30.632 36.0928 30.5625 36.1442C30.5279 36.1697 30.4929 36.1948 30.4571 36.2195C30.0104 36.5276 29.4966 36.7277 28.957 36.8036V38.1418C29.3737 38.5394 30.2883 39.1741 32.0346 39.4216C34.3091 39.7439 35.1562 38.2824 35.1562 38.2824C35.1562 38.2824 34.2358 39.26 32.2187 38.9813C30.2016 38.7025 29.6591 38.0621 29.5883 37.8059C29.5175 37.5498 29.5883 37.0026 29.5883 37.0026C29.5883 37.0026 31.5987 36.4871 31.7437 34.3238C31.6725 34.9072 31.3104 35.5135 30.7633 35.9839Z" fill="#DBBDBF"/>
<path d="M40.0233 11.8388C40.6879 11.9699 41.2896 12.3149 41.7341 12.8197C41.2545 12.2219 40.7341 11.7779 40.177 11.4889C39.739 11.2585 39.2558 11.1239 38.7603 11.0943C38.2132 11.0626 37.6286 11.1563 37.0145 11.3705C36.9666 11.387 36.9182 11.4051 36.87 11.4232C36.8524 11.4297 36.8345 11.4359 36.817 11.4429C36.7995 11.4499 36.785 11.4556 36.769 11.4618C36.6707 11.5009 36.5716 11.544 36.4716 11.5872C36.4395 11.6016 36.4075 11.6164 36.3757 11.6316C35.1845 12.1862 33.8957 13.158 32.5549 14.5155C32.9642 14.7638 33.3105 15.1014 33.567 15.5022C36.5058 12.062 38.6611 11.565 40.0233 11.8388Z" fill="#FF3E39"/>
<path d="M28.5075 40.6575H28.5033C27.045 40.1403 26.2696 41.0991 26.0908 41.3515C26.3933 41.6686 26.7642 41.9144 27.1762 42.0705C27.0884 42.0213 27.0098 41.9576 26.9438 41.8823C26.8649 41.7961 26.8115 41.6903 26.7894 41.5762C26.7674 41.4622 26.7775 41.3443 26.8187 41.2355C26.8426 41.1663 26.8817 41.1031 26.9333 41.0505C27.095 40.882 27.3762 40.7944 27.6605 40.8072C28.0112 40.8228 28.3662 40.9906 28.5058 41.349C28.5482 41.2423 28.6128 41.1455 28.6956 41.0651C28.7784 40.9848 28.8774 40.9225 28.9863 40.8825C29.0042 40.8754 29.0221 40.8692 29.04 40.8635L29.0525 40.8594C29.0666 40.8544 29.0813 40.8507 29.0942 40.8467L29.1175 40.8401L29.1508 40.8331L29.1859 40.8257L29.2083 40.822L29.2546 40.815H29.2666C29.2854 40.815 29.3045 40.8113 29.3233 40.81H29.3263C29.4581 40.8017 29.5904 40.8156 29.7175 40.8512C29.7374 40.8569 29.7592 40.8631 29.7767 40.8701L29.7888 40.8746C29.804 40.8801 29.819 40.8859 29.8337 40.8919L29.8625 40.9054L29.8883 40.9173C29.9054 40.9264 29.9225 40.9355 29.9387 40.9454C30.0546 41.0102 30.1432 41.1137 30.1888 41.2372C30.3704 41.7742 29.8704 42.0512 29.8304 42.0722C30.2426 41.9162 30.6137 41.6704 30.9163 41.3532C30.7413 41.0991 29.9662 40.1403 28.5075 40.6575Z" fill="#E06E6E"/>
<path d="M18.3709 43.8297C19.3141 44.2787 20.2927 44.6513 21.2972 44.9438C22.5729 45.3148 23.8785 45.5774 25.1996 45.7287C25.7311 45.7917 26.2726 45.839 26.8246 45.8705C27.2913 45.8979 27.7652 45.9134 28.2463 45.9169C28.333 45.9169 28.4192 45.9169 28.5059 45.9169H28.543C28.738 45.9169 28.9321 45.9169 29.1263 45.9108C29.1905 45.9108 29.2513 45.9066 29.3171 45.9051C29.8643 45.8903 30.403 45.861 30.933 45.8175C30.9884 45.8129 31.043 45.8072 31.0997 45.8018L31.2459 45.7879L31.3767 45.7756C31.4246 45.7714 31.473 45.7673 31.5205 45.762C34.6284 45.433 37.4038 44.5849 39.7221 43.2673H39.725H39.7283C39.7701 43.2448 39.8067 43.2213 39.8459 43.1982L39.9255 43.1514C40.7351 42.6768 41.4996 42.131 42.2097 41.5206C42.7303 41.073 43.2177 40.5889 43.6679 40.0722C43.7188 40.013 43.77 39.9542 43.8201 39.8946C44.1215 39.535 44.3903 39.1498 44.623 38.7434C44.9514 38.1645 45.2143 37.5517 45.4071 36.9161C45.6112 36.2459 45.7519 35.5587 45.8275 34.863C45.8386 34.7633 45.8487 34.6645 45.8576 34.5666C45.8576 34.5555 45.8576 34.5439 45.8605 34.5333C45.0738 34.0584 44.4347 33.9622 43.7872 34.0811C43.6211 34.1111 43.4575 34.1524 43.2971 34.2044C42.0618 41.3331 34.5984 44.4411 28.5055 44.4411C25.4592 44.4411 22.07 43.6644 19.2883 41.9966C16.5067 40.3287 14.3321 37.7688 13.7146 34.2027C13.5532 34.1505 13.3884 34.1094 13.2213 34.0794C12.575 33.963 11.9363 34.0601 11.1509 34.5341C11.1509 34.5448 11.1534 34.5563 11.1542 34.5674C11.1631 34.6652 11.1731 34.7641 11.1842 34.8638C11.2597 35.5592 11.4004 36.2463 11.6046 36.9161C11.7295 37.3242 11.8826 37.7234 12.063 38.1107C12.1584 38.3164 12.2621 38.5177 12.3759 38.7175C12.3959 38.753 12.4175 38.7883 12.4375 38.8236C12.6588 39.1997 12.9109 39.5572 13.1913 39.8926C14.5605 41.5206 16.3117 42.8435 18.3709 43.8297Z" fill="#DBBDBF"/>
<path d="M35.1555 38.2811C35.1555 38.2811 34.3083 39.7426 32.0338 39.4202C30.2875 39.1736 29.3734 38.5379 28.9563 38.1405V36.8023C29.4957 36.7263 30.0096 36.5263 30.4563 36.218C30.4921 36.1934 30.5271 36.1684 30.5617 36.1428C30.6313 36.0915 30.6979 36.038 30.7625 35.9825C31.3096 35.5122 31.6716 34.9058 31.7413 34.3216C31.7498 34.2534 31.754 34.1848 31.7541 34.1161C31.7541 32.856 30.2996 31.8348 28.5041 31.8348C26.71 31.8348 25.2542 32.856 25.2542 34.1161C25.2543 34.1848 25.2585 34.2534 25.2666 34.3216C25.3367 34.9058 25.6988 35.5138 26.2459 35.9825C26.31 36.038 26.3771 36.0915 26.4463 36.1428C26.4808 36.1684 26.5162 36.1934 26.5521 36.218C26.9987 36.5263 27.5125 36.7263 28.0521 36.8023V38.1405C27.6354 38.5379 26.7188 39.1728 24.9742 39.4202C22.7 39.7426 21.8529 38.2811 21.8529 38.2811C21.8529 38.2811 21.6292 40.4961 24.3213 40.5146H24.3704C24.5241 40.9471 24.7431 41.3541 25.02 41.7221C25.5825 42.4621 26.645 43.3479 28.5021 43.3479C30.3613 43.3479 31.4217 42.4636 31.9842 41.7221C32.2609 41.354 32.4799 40.947 32.6337 40.5146H32.6829C35.3796 40.4961 35.1555 38.2811 35.1555 38.2811ZM29.8354 42.0723C29.4152 42.2275 28.9695 42.3051 28.5209 42.3013H28.5021C28.0511 42.3051 27.6032 42.2275 27.1805 42.0723C27.0921 42.0231 27.013 41.9594 26.9463 41.884C27.0123 41.9594 27.0909 42.0231 27.1788 42.0723C26.7665 41.9168 26.3951 41.6716 26.0921 41.3549C26.2708 41.1025 27.0459 40.1437 28.5046 40.661H28.5088C29.9671 40.1437 30.7425 41.1025 30.9213 41.3549C30.6186 41.6716 30.2474 41.9168 29.8354 42.0723Z" fill="black"/>
<path d="M34.8756 45.1729H38.2177C38.2177 45.1729 37.7915 45.3484 37.5739 45.4306L37.5393 45.4438C37.3552 45.5134 37.1691 45.5804 36.981 45.6449C36.793 45.7092 36.6034 45.7715 36.4123 45.8314L36.3515 45.8496C36.1984 45.8973 36.0441 45.9433 35.8885 45.9877L35.7131 46.0366C35.5882 46.0712 35.4631 46.1049 35.3381 46.1373C35.2811 46.1525 35.224 46.1674 35.1661 46.1817C34.9889 46.2265 34.8111 46.2697 34.6311 46.3104L34.599 46.3174C34.427 46.356 34.2538 46.3929 34.0794 46.428C34.0227 46.4395 33.9656 46.4502 33.9085 46.4613C33.7727 46.4886 33.6362 46.5142 33.4989 46.5378L33.3302 46.5677C33.1423 46.5998 32.9552 46.6306 32.7631 46.6586C32.7631 46.6586 32.7631 46.6586 32.7606 46.6586C32.0815 46.7587 31.387 46.8341 30.6773 46.8851C29.9676 46.9361 29.2441 46.9613 28.5069 46.9608C27.0824 46.9643 25.6598 46.8628 24.2506 46.6574C24.0602 46.6294 23.8715 46.5986 23.6831 46.5665L23.5144 46.5366C23.3774 46.5124 23.2411 46.4869 23.1052 46.4601C23.0481 46.449 22.991 46.4382 22.9343 46.4268C22.7602 46.3914 22.587 46.3545 22.4148 46.3161L22.3823 46.3092C22.2027 46.268 22.0248 46.227 21.8473 46.1805C21.7898 46.1661 21.7327 46.1513 21.6756 46.1361C21.5495 46.1038 21.4246 46.0702 21.3006 46.0354L21.1256 45.9865C20.9698 45.9417 20.8152 45.896 20.6619 45.8484L20.6015 45.8302C20.2193 45.7104 19.8435 45.5812 19.4744 45.4426L19.4402 45.4294C19.2227 45.3472 19.0089 45.2604 18.7969 45.1721H22.1502C23.154 45.4219 24.1733 45.6068 25.2014 45.7258C25.7331 45.7889 26.2748 45.8361 26.8265 45.8677C27.2931 45.8951 27.767 45.9105 28.2481 45.9141C28.3348 45.9141 28.4211 45.9141 28.5077 45.9141H28.5423C28.7373 45.9141 28.9315 45.9141 29.1256 45.9079C29.1898 45.9079 29.2506 45.9039 29.3165 45.9022C29.8635 45.8874 30.4032 45.861 30.9327 45.8151C30.9877 45.8101 31.0423 45.8048 31.0994 45.799L31.2456 45.785L31.3764 45.7727C31.4244 45.7685 31.4723 45.7645 31.5198 45.7596C32.6511 45.6426 33.7725 45.4466 34.8756 45.1729Z" fill="black"/>
<path d="M44.6321 40.5603C43.18 42.2902 41.3509 43.6922 39.1804 44.7421H36.3704C37.5326 44.3627 38.6533 43.8695 39.7158 43.2699H39.7188H39.7221C39.7638 43.2473 39.8004 43.2238 39.8396 43.2008L39.9192 43.1544C40.7301 42.6791 41.4958 42.1326 42.207 41.5215C42.7278 41.0738 43.2152 40.5898 43.6654 40.0731C43.7163 40.0139 43.7675 39.9551 43.8175 39.8955C44.119 39.5359 44.3877 39.1507 44.6205 38.7444C44.9489 38.1655 45.2119 37.5526 45.4046 36.917C45.6086 36.2469 45.7493 35.5596 45.825 34.864C45.8361 34.7641 45.8461 34.6654 45.855 34.5675C45.855 34.5564 45.855 34.5449 45.8579 34.5342C45.8759 34.3311 45.8871 34.1329 45.8954 33.9397C45.9058 33.6837 45.9096 33.4365 45.9071 33.2027C45.8825 31.1166 45.4192 29.5178 45.4146 29.5027C45.41 29.4874 45.4079 29.4709 45.4046 29.4553C45.3964 29.4166 45.3927 29.3772 45.3933 29.3377C45.3933 29.3221 45.4013 29.0849 45.4025 28.6742C45.4025 27.7698 45.3767 26.0328 45.1796 23.9732C45.1537 23.7018 45.1248 23.4253 45.0925 23.1436C44.7809 20.4121 44.163 17.2671 42.95 14.7877C42.8578 14.5991 42.762 14.4147 42.6625 14.2344C42.4401 13.8265 42.1906 13.4337 41.9154 13.0586C41.9084 13.0483 41.9012 13.038 41.8937 13.0282V13.0257L41.8867 13.0158C41.8362 12.9484 41.7858 12.8834 41.735 12.8197C41.255 12.2217 40.7358 11.7781 40.1775 11.489C39.7395 11.2585 39.2563 11.1239 38.7609 11.0943C38.2137 11.0626 37.6291 11.1564 37.015 11.3706C36.9671 11.387 36.9187 11.4051 36.8704 11.4232C36.853 11.4298 36.835 11.4359 36.8175 11.4429C36.8 11.4499 36.7854 11.4557 36.7696 11.4618C36.6713 11.5009 36.5721 11.544 36.472 11.5872C36.44 11.6016 36.4079 11.6164 36.3762 11.6316C35.185 12.1862 33.8963 13.1581 32.5554 14.5156C32.7784 14.6485 32.9825 14.8099 33.1625 14.9957C33.4336 15.2764 33.6543 15.6004 33.8154 15.954C33.8454 16.021 33.8621 16.0654 33.8667 16.0774C33.8462 16.0605 33.5438 15.8414 32.9467 15.5881C32.0892 15.2247 30.6237 14.7918 28.5092 14.7918C26.3946 14.7918 24.9313 15.2239 24.0737 15.5873C23.4754 15.8406 23.1721 16.0605 23.1512 16.0774V16.0724C23.215 15.9088 23.2937 15.7513 23.3863 15.6017L23.395 15.5873V15.5853L23.4283 15.5322L23.4483 15.5006C23.7049 15.0997 24.0511 14.7622 24.4605 14.5139C23.1371 13.1741 21.8646 12.2117 20.6866 11.6518C20.5879 11.6053 20.4896 11.5605 20.3925 11.5194C20.3509 11.5017 20.3091 11.4848 20.2654 11.468C20.2429 11.4594 20.2204 11.4495 20.1983 11.4413L20.1454 11.4215C20.097 11.4034 20.0488 11.3854 20.0008 11.3689C19.3866 11.1547 18.8021 11.061 18.2546 11.0926C17.7591 11.1224 17.276 11.257 16.8379 11.4873C16.2824 11.7764 15.7633 12.22 15.2808 12.8181C15.2296 12.8818 15.1796 12.9468 15.1292 13.0142L15.1217 13.024V13.0265C14.8624 13.3776 14.6258 13.7445 14.4133 14.125C14.2919 14.3401 14.1757 14.5612 14.0646 14.7881C13.3042 16.3438 12.7779 18.1592 12.4142 19.9739C12.1988 21.0489 12.0392 22.1224 11.9238 23.1394C11.8918 23.4217 11.8628 23.6994 11.8367 23.9724C11.6379 26.0489 11.6108 27.799 11.6138 28.6948C11.6138 29.092 11.6221 29.3217 11.6225 29.3369C11.6235 29.3764 11.6199 29.4159 11.6117 29.4546C11.6083 29.4701 11.6063 29.4862 11.6017 29.5018C11.5971 29.5175 11.1333 31.1162 11.1092 33.2018C11.1063 33.4358 11.1092 33.6828 11.1208 33.939C11.1288 34.1321 11.1404 34.3303 11.1579 34.5334C11.1579 34.5441 11.1604 34.5556 11.1613 34.5667C11.1701 34.6645 11.1801 34.7633 11.1913 34.8631C11.2634 35.5588 11.4008 36.2464 11.6017 36.917C11.7267 37.3251 11.8798 37.7242 12.06 38.1117C12.1554 38.3173 12.2592 38.5187 12.3729 38.7185C12.3929 38.7539 12.4146 38.7892 12.4346 38.8245C12.6555 39.2007 12.9076 39.5582 13.1883 39.8935C14.5554 41.5231 16.3067 42.8444 18.3663 43.8311C19.104 44.1828 19.8641 44.4871 20.6417 44.7421H17.8263C15.6554 43.6922 13.8263 42.2902 12.3742 40.5603C10.8075 38.693 9.99917 36.1343 10.0408 33.1603C10.0675 31.1869 10.4513 29.6605 10.5521 29.2921C10.5388 28.7951 10.4925 26.1915 10.8604 22.9914C11.4021 18.2706 12.5467 14.7104 14.2588 12.409C15.3583 10.9311 16.6808 10.1372 18.1883 10.0505C19.6121 9.96825 21.1684 10.5233 22.8133 11.7003C24.0492 12.5846 25.0296 13.6082 25.4855 14.0901C26.2904 13.889 27.2871 13.748 28.5034 13.748C29.7195 13.748 30.7162 13.889 31.5213 14.0901C31.9771 13.6082 32.9575 12.5846 34.1933 11.7003C35.8383 10.5233 37.3945 9.96825 38.8183 10.0505C40.3254 10.1372 41.6483 10.9311 42.7475 12.409C44.46 14.7112 45.6034 18.2706 46.1463 22.9914C46.5142 26.1915 46.468 28.7951 46.4546 29.2921C46.555 29.6621 46.9392 31.1886 46.9654 33.1603C47.0059 36.1359 46.1992 38.693 44.6321 40.5603Z" fill="black"/>
<path d="M21.5979 32.8843C23.0969 32.8843 24.3121 31.3718 24.3121 29.5061C24.3121 27.6405 23.0969 26.128 21.5979 26.128C20.099 26.128 18.8838 27.6405 18.8838 29.5061C18.8838 31.3718 20.099 32.8843 21.5979 32.8843Z" fill="black"/>
<path d="M35.6798 32.8843C37.1788 32.8843 38.3939 31.3718 38.3939 29.5061C38.3939 27.6405 37.1788 26.128 35.6798 26.128C34.1807 26.128 32.9656 27.6405 32.9656 29.5061C32.9656 31.3718 34.1807 32.8843 35.6798 32.8843Z" fill="black"/>
<path d="M22.1844 29.315C22.6571 29.315 23.0402 28.8067 23.0402 28.1796C23.0402 27.5524 22.6571 27.0441 22.1844 27.0441C21.7117 27.0441 21.3286 27.5524 21.3286 28.1796C21.3286 28.8067 21.7117 29.315 22.1844 29.315Z" fill="white"/>
<path d="M35.1318 29.315C35.6045 29.315 35.9876 28.8067 35.9876 28.1796C35.9876 27.5524 35.6045 27.0441 35.1318 27.0441C34.6591 27.0441 34.2759 27.5524 34.2759 28.1796C34.2759 28.8067 34.6591 29.315 35.1318 29.315Z" fill="white"/>
<path d="M39.1823 44.7385L38.2169 45.1721H34.8748L36.3722 44.7385" fill="black"/>
<path d="M18.7931 45.1721L17.8276 44.7385H20.6452L22.1468 45.1721" fill="black"/>
</g>
<defs>
<clipPath id="clip0_465_737">
<rect width="57" height="57" fill="white"/>
</clipPath>
</defs>
</svg>
