<svg width="668" height="621" viewBox="0 0 668 621" fill="none" xmlns="http://www.w3.org/2000/svg">
<path d="M338.35 598.478C503.615 598.478 637.589 464.504 637.589 299.239C637.589 133.974 503.615 0 338.35 0C173.085 0 39.1113 133.974 39.1113 299.239C39.1113 464.504 173.085 598.478 338.35 598.478Z" fill="#FFB32C"/>
<mask id="mask0_449_2892" style="mask-type:luminance" maskUnits="userSpaceOnUse" x="0" y="34" width="668" height="587">
<path d="M623.668 121.221V34.6543H31.5087V147.72C11.8652 190.225 0.911621 237.559 0.911621 287.456C0.911621 471.661 150.239 620.999 334.454 620.999C518.67 620.999 667.997 471.671 667.997 287.456C667.986 226.927 651.862 170.153 623.668 121.221Z" fill="white"/>
</mask>
<g mask="url(#mask0_449_2892)">
<path d="M598.876 494.403C589.242 515.839 584.565 539.205 585.884 562.678C590.004 636.232 573.246 803.614 335.142 803.614H335.121C97.0601 803.614 80.2811 636.232 84.4222 562.678C85.7203 539.205 81.0428 515.839 71.4302 494.403C47.1414 440.268 38.0116 392.871 38.1725 352.05V351.975C38.6767 222.055 133.418 159.026 133.418 159.026C185.493 26.5531 335.142 38.0753 335.142 38.0753C335.142 38.0753 484.802 26.5531 536.877 159.026C536.877 159.026 700.505 267.897 598.876 494.403Z" fill="white"/>
<path d="M631.923 351.984V352.059C632.073 392.869 622.954 440.277 598.665 494.412C597.442 497.148 596.294 499.927 595.232 502.727C587.948 521.813 584.558 542.207 585.673 562.687C587.883 602.146 584.086 668.608 543.329 721.756C508.14 767.641 445.39 803.581 335.135 803.623H334.985C97.0745 803.538 80.2955 636.219 84.4259 562.687C85.724 539.214 81.0464 515.848 71.4339 494.412C47.145 440.277 38.0152 392.88 38.1762 352.059V351.984C43.5725 296.55 60.6412 255.483 83.4603 225.164C149.171 137.804 262.741 139.671 283.447 143.458C310.46 148.414 333.558 151.751 334.985 151.944C335.039 151.965 335.06 151.965 335.06 151.965C335.06 151.965 358.791 148.564 386.674 143.458C407.369 139.671 520.95 137.804 586.66 225.164C609.458 255.483 626.527 296.55 631.923 351.984Z" fill="#C1BFBF"/>
<path d="M631.922 351.963V352.038C632.072 392.849 622.953 440.257 598.664 494.392C597.441 497.128 596.293 499.906 595.231 502.706C512.902 641.681 334.974 649.663 334.974 649.663C334.974 649.663 157.045 641.681 74.716 502.706C73.6432 499.906 72.506 497.138 71.283 494.392C61.531 472.699 54.2572 452.079 48.9896 432.543C41.1687 403.319 37.918 376.499 38.0145 352.038V351.963C43.4109 296.53 60.4796 255.462 83.2987 225.144C85.9807 221.571 88.7379 218.17 91.5702 214.888C158.118 137.934 263.416 139.8 283.285 143.426C311.168 148.533 334.899 151.934 334.899 151.934C334.899 151.934 334.92 151.934 334.974 151.912C335.027 151.934 335.049 151.934 335.049 151.934C335.049 151.934 358.78 148.533 386.663 143.426C407.357 139.639 520.938 137.773 586.649 225.133C609.457 255.462 626.526 296.53 631.922 351.963Z" fill="#A0A0A0"/>
<path d="M78.31 256.108C78.31 256.108 37.9824 336.28 48.5819 428.576C48.7321 429.938 48.8716 431.279 48.9896 432.577C41.1687 403.353 37.918 376.533 38.0145 352.072V351.997C43.4109 296.564 60.4796 255.496 83.2987 225.178C85.9807 221.605 88.7379 218.204 91.5702 214.922C93.2223 214.771 94.1557 214.707 94.1557 214.707L78.31 256.108Z" fill="#C1BFBF"/>
<path d="M591.637 256.108C591.637 256.108 631.965 336.28 621.365 428.576C621.215 429.938 621.076 431.279 620.958 432.577C628.779 403.353 632.029 376.533 631.933 352.072V351.997C626.536 296.564 609.468 255.496 586.649 225.178C583.966 221.605 581.209 218.204 578.377 214.922C576.725 214.771 575.792 214.707 575.792 214.707L591.637 256.108Z" fill="#C1BFBF"/>
<path d="M335.152 803.604C97.0591 803.604 80.2908 636.231 84.4212 562.668C85.7408 539.205 81.0525 515.838 71.4292 494.393C-30.1999 267.897 133.417 159.015 133.417 159.015C185.503 26.5531 335.152 38.0753 335.152 38.0753C335.152 38.0753 484.801 26.5531 536.887 159.026C536.887 159.026 700.504 267.908 598.875 494.403C589.252 515.849 584.574 539.205 585.883 562.678C590.003 636.231 573.234 803.604 335.152 803.604Z" stroke="#595653" stroke-width="9.04353" stroke-miterlimit="10" stroke-linecap="round" stroke-linejoin="round"/>
<path d="M439.48 522.532C435.811 526.523 431.262 531.072 425.866 535.782C406.222 552.85 375.389 571.764 335.04 571.764C294.68 571.764 263.826 552.85 244.204 535.76C238.807 531.072 234.269 526.502 230.611 522.521C236.039 523.916 241.489 525.204 246.918 526.394C277.129 533.11 307.157 537.026 335.04 537.026C362.923 537.026 392.941 533.11 423.141 526.394C428.591 525.214 434.03 523.927 439.48 522.532Z" fill="#379E25"/>
<path d="M144.56 592.08C144.957 593.195 145.439 594.268 146.104 595.319C145.847 594.847 145.257 593.699 144.56 592.08Z" fill="white"/>
<path d="M524.085 595.122C524.053 595.186 524.02 595.261 523.978 595.325C524.653 594.253 525.157 593.138 525.554 592.012C524.932 593.47 524.385 594.553 524.085 595.122Z" fill="white"/>
<path d="M343.717 618.793C343.717 623.567 339.822 627.472 335.038 627.472C330.253 627.472 326.358 623.577 326.358 618.793C326.358 618.31 326.401 617.816 326.487 617.366C327.163 613.267 330.746 610.113 335.038 610.113C339.329 610.113 342.912 613.257 343.588 617.366C343.663 617.816 343.717 618.299 343.717 618.793Z" fill="#C1BFBF"/>
<path d="M343.59 617.366C342.914 621.464 339.331 624.596 335.039 624.596C330.748 624.596 327.165 621.464 326.489 617.366C327.165 613.267 330.748 610.113 335.039 610.113C339.331 610.113 342.914 613.267 343.59 617.366Z" fill="white"/>
<path d="M335.037 581.189C325.468 581.189 316.52 580.105 308.184 578.281L308.989 618.791L310.641 702.826C310.716 706.956 312.572 710.872 315.705 713.576C327.324 723.564 332.634 727.855 335.037 729.711C337.44 727.855 342.762 723.564 354.37 713.576C357.502 710.872 359.358 706.956 359.433 702.826L361.096 618.512L361.879 578.281C353.554 580.105 344.607 581.189 335.037 581.189ZM335.037 603.815C343.287 603.815 350.003 610.531 350.003 618.781C350.003 627.031 343.287 633.746 335.037 633.746C326.787 633.746 320.071 627.031 320.071 618.781C320.071 610.531 326.787 603.815 335.037 603.815ZM335.037 662.23C343.287 662.23 350.003 668.946 350.003 677.196C350.003 685.446 343.287 692.162 335.037 692.162C326.787 692.162 320.071 685.446 320.071 677.196C320.071 668.946 326.787 662.23 335.037 662.23Z" fill="white"/>
<path d="M524.369 1083.71C519.498 1088.72 501.325 1103.8 453.015 1111.95C418.009 1117.88 400.758 1113.14 382.509 1108.13C369.27 1104.5 355.645 1100.76 335.143 1101.12H335.047C314.502 1100.74 300.834 1104.5 287.585 1108.13C269.336 1113.14 252.085 1117.89 217.079 1111.95C168.769 1103.79 150.595 1088.72 145.725 1083.71C150.391 1071.3 169.649 1016.61 183.563 925.55C186.9 903.685 189.925 879.718 192.382 853.756C194.817 828.008 196.158 804.191 196.545 782.381C197.156 748.544 195.461 719.62 191.942 695.996C191.931 695.889 191.931 695.835 191.931 695.835C184.464 645.852 172.063 618.806 172.063 618.806C172.063 618.806 176.054 637.667 180.581 671.289C165.647 621.971 146.25 595.59 146.25 595.59L147.538 581.461C147.999 576.365 150.724 571.838 155.047 569.059C176.032 555.509 207.23 530.641 215.147 524.258C220.254 525.813 225.425 527.305 230.596 528.71V528.721H230.607C235.574 535.308 258.983 563.877 298.71 575.872L301.21 703.056C301.349 709.857 304.385 716.326 309.556 720.768C332.043 740.068 332.848 740.068 335.036 740.068C337.225 740.068 338.019 740.068 360.516 720.747C365.687 716.294 368.723 709.836 368.862 703.034L371.362 576.215V575.85C411.089 563.856 434.498 535.286 439.465 528.699H439.476V528.689C444.647 527.294 449.818 525.792 454.936 524.236C462.864 530.62 494.051 555.488 515.035 569.038C519.359 571.816 522.095 576.344 522.545 581.44L523.833 595.569C523.833 595.569 504.436 621.95 489.502 671.278C494.029 637.656 498.02 618.785 498.02 618.785C498.02 618.785 485.618 645.842 478.152 695.814C472.348 734.672 471.489 787.895 477.69 853.734C480.179 880.019 483.237 904.233 486.638 926.301C500.552 1016.9 519.713 1071.35 524.369 1083.71Z" fill="white"/>
<path d="M310.642 702.835L308.99 618.8L314.729 695.583C315.03 699.477 316.789 703.125 319.686 705.775L331.734 716.782C333.6 718.498 336.486 718.498 338.353 716.782L350.401 705.775C353.298 703.136 355.057 699.488 355.357 695.583L361.129 618.521L359.466 702.835C359.391 706.966 357.535 710.881 354.403 713.585C342.784 723.573 337.473 727.864 335.07 729.72C332.667 727.864 327.346 723.573 315.738 713.585C312.573 710.881 310.717 706.966 310.642 702.835Z" fill="#C1BFBF"/>
<path d="M374.529 710.514C374.658 716.286 372.566 721.897 368.682 726.177L342.022 755.498C338.278 759.628 331.788 759.628 328.043 755.498L301.384 726.177C297.5 721.897 295.408 716.286 295.537 710.514L298.712 575.842L301.212 703.026C301.351 709.827 304.387 716.297 309.559 720.738C332.045 740.07 332.85 740.071 335.038 740.071C337.227 740.071 338.021 740.071 360.518 720.749C365.689 716.297 368.725 709.838 368.865 703.036L371.364 576.217L374.529 710.514Z" fill="#C1BFBF"/>
<path d="M335.036 571.766C291.554 571.766 261.129 547.444 246.764 532.811C241.356 531.524 235.982 530.15 230.607 528.691C235.574 535.279 258.983 563.848 298.71 575.842L301.21 703.026C301.349 709.828 304.385 716.297 309.556 720.739C332.043 740.06 332.847 740.06 335.036 740.06C337.224 740.06 338.018 740.06 360.516 720.739C365.687 716.286 368.723 709.828 368.862 703.026L371.362 575.842C411.089 563.848 434.498 535.279 439.465 528.691C434.09 530.15 428.715 531.524 423.308 532.811C408.943 547.444 378.518 571.766 335.036 571.766ZM359.432 702.833C359.357 706.963 357.501 710.879 354.368 713.583C342.75 723.56 337.439 727.851 335.036 729.707C332.622 727.851 327.312 723.56 315.704 713.583C312.571 710.879 310.715 706.963 310.64 702.833L308.183 578.288C316.519 580.112 325.456 581.196 335.036 581.196C344.616 581.196 353.553 580.112 361.889 578.288L359.432 702.833Z" fill="#595653"/>
<path d="M320.072 618.799C320.072 627.049 326.788 633.765 335.038 633.765C343.288 633.765 350.004 627.049 350.004 618.799C350.004 610.549 343.288 603.822 335.038 603.822C326.788 603.822 320.072 610.538 320.072 618.799ZM343.717 618.799C343.717 623.584 339.823 627.478 335.038 627.478C330.253 627.478 326.359 623.584 326.359 618.799C326.359 614.014 330.253 610.12 335.038 610.12C339.823 610.12 343.717 614.003 343.717 618.799Z" fill="#595653"/>
<path d="M486.241 697.675C491.916 647.692 498.031 618.801 498.031 618.801C498.031 618.801 485.629 645.858 478.162 695.83C472.358 734.688 471.5 787.911 477.701 853.75C490.339 987.886 518.576 1068.33 524.358 1083.7C519.488 1088.71 501.314 1103.79 453.004 1111.95C417.998 1117.87 400.747 1113.14 382.498 1108.13C369.249 1104.5 355.581 1100.74 335.036 1101.11C314.491 1100.74 300.823 1104.5 287.574 1108.13C269.325 1113.14 252.074 1117.88 217.068 1111.95C168.758 1103.78 150.584 1088.71 145.714 1083.7C151.496 1068.33 179.733 987.876 192.371 853.75C198.583 787.911 197.714 734.699 191.92 695.83C184.454 645.847 172.052 618.801 172.052 618.801C172.052 618.801 178.167 647.692 183.842 697.675C185.441 711.869 186.578 727.972 187.061 745.845C187.136 749.192 187.222 752.604 187.254 756.069C187.522 778.288 186.825 803.016 184.883 830.041H184.84C184.733 831.403 173.253 967.857 120.427 1045.49L119.644 1046.63L119.612 1048.02C119.601 1048.76 119.419 1065.25 138.054 1077.27C136.766 1080.85 135.994 1082.72 135.951 1082.85L135.028 1085.15L136.38 1087.22C136.659 1087.66 140.06 1092.63 149.79 1098.91C152.161 1100.44 154.919 1102.06 158.094 1103.69C170.217 1109.96 188.487 1116.7 215.523 1121.26C227.624 1123.3 237.816 1124.12 246.699 1124.12C249.542 1124.12 252.246 1124.05 254.842 1123.89C258.157 1123.69 261.29 1123.37 264.261 1122.98C273.949 1121.67 282.092 1119.44 290.106 1117.24C303.312 1113.6 315.779 1110.21 334.972 1110.55H335.165C354.358 1110.21 366.824 1113.6 380.03 1117.24C388.044 1119.44 396.187 1121.67 405.875 1122.98C406.615 1123.07 407.398 1123.15 408.16 1123.25C410.445 1123.51 412.795 1123.74 415.284 1123.89C417.88 1124.05 420.583 1124.12 423.426 1124.12C432.309 1124.12 442.501 1123.31 454.603 1121.26C481.638 1116.7 499.908 1109.95 512.031 1103.69C514.413 1102.46 516.559 1101.24 518.479 1100.07C519.123 1099.68 519.734 1099.29 520.335 1098.91C530.066 1092.63 533.467 1087.66 533.745 1087.22L535.097 1085.15L534.175 1082.85C534.132 1082.72 533.359 1080.84 532.072 1077.27C550.696 1065.25 550.525 1048.76 550.514 1048.02L550.482 1046.63L549.698 1045.49C496.872 967.857 485.404 831.414 485.286 830.041H485.243C483.29 803.016 482.604 778.288 482.872 756.069C482.904 752.615 482.979 749.203 483.065 745.845C483.505 727.961 484.642 711.869 486.241 697.675ZM129.106 1049.45C145.091 1025.55 157.29 996.887 166.57 968.307C157.214 1016.48 147.173 1050.19 141.229 1068.02C131.349 1060.83 129.46 1052.51 129.106 1049.45ZM540.966 1049.45C540.601 1052.51 538.713 1060.83 528.843 1068.02C522.899 1050.19 512.857 1016.48 503.502 968.307C512.782 996.898 524.98 1025.55 540.966 1049.45Z" fill="#595653"/>
<path d="M187.115 803.989C186.568 804.687 185.989 805.373 185.345 806.049C171.516 820.189 133.442 824.148 117.21 818.161C104.915 813.634 52.7649 766.301 15.7308 731.016C15.6879 730.973 15.6772 730.962 15.6343 730.919C15.9669 730.822 16.2994 730.726 16.6427 730.608C17.3079 730.393 18.0052 730.157 18.724 729.932C19.0888 729.814 19.4643 729.674 19.8505 729.546C28.991 726.209 41.5431 719.858 57.1099 710.696C62.5277 707.51 67.5592 704.324 72.1939 701.223C72.8375 700.794 73.4705 700.365 74.0928 699.946C75.3158 699.131 76.4852 698.316 77.6224 697.5C78.1695 697.136 78.6737 696.76 79.1994 696.395C79.3496 696.299 79.4891 696.202 79.65 696.084C80.755 695.29 81.86 694.496 82.9329 693.692C84.0379 692.876 85.1322 692.061 86.1728 691.246C87.0847 690.548 87.9752 689.862 88.8549 689.186C91.5155 687.105 93.983 685.088 96.2574 683.124C97.1264 682.384 97.9632 681.665 98.7786 680.947C99.1862 680.593 99.5939 680.228 99.9801 679.874C100.388 679.509 100.774 679.155 101.15 678.822C101.922 678.125 102.662 677.438 103.381 676.763C104.218 676.001 105.033 675.228 105.784 674.488C106.546 673.769 107.265 673.051 107.941 672.375C108.295 672.021 108.616 671.699 108.949 671.366C109.024 671.291 109.099 671.216 109.164 671.13C109.453 670.841 109.743 670.551 110.022 670.261C110.29 669.993 110.569 669.703 110.816 669.424C111.084 669.156 111.374 668.824 111.728 668.47C114.023 666.024 117.8 661.775 121.083 657.301C121.104 657.258 121.126 657.248 121.136 657.226C121.158 657.183 121.19 657.151 121.233 657.108C121.544 658.181 121.877 659.286 122.198 660.445C122.531 661.614 122.874 662.816 123.25 664.06V664.082C123.604 665.305 123.99 666.581 124.376 667.89C124.569 668.555 124.763 669.231 124.956 669.886C125.363 671.205 125.75 672.568 126.157 673.919C126.565 675.303 126.994 676.677 127.402 678.061C127.831 679.445 128.26 680.839 128.668 682.213C128.882 682.888 129.097 683.596 129.311 684.294C129.504 684.895 129.676 685.495 129.869 686.096C130.234 687.276 130.609 688.489 130.974 689.647C131.521 691.417 132.079 693.145 132.626 694.808C132.98 695.913 133.345 697.007 133.699 698.069C135.898 704.731 137.894 710.203 139.267 713.035C144.824 724.332 152.624 750.005 151.251 756.817C151.304 756.645 151.422 756.216 151.605 755.54C151.648 755.326 151.723 755.079 151.776 754.8C151.819 754.628 151.873 754.435 151.916 754.221C151.969 753.963 152.034 753.695 152.087 753.427C152.087 753.384 152.109 753.352 152.109 753.287C152.163 753.03 152.205 752.783 152.259 752.494C152.313 752.258 152.356 751.989 152.409 751.721C152.463 751.313 152.549 750.884 152.624 750.444C152.72 749.822 152.817 749.146 152.914 748.449C152.956 748.116 152.989 747.805 153.053 747.483C153.074 747.312 153.096 747.129 153.107 746.958C153.128 746.668 153.16 746.378 153.182 746.067C153.278 745.134 153.375 744.147 153.439 743.117C153.482 742.495 153.514 741.851 153.536 741.197C153.868 732.496 152.892 720.963 147.882 708.829C147.399 707.628 146.734 705.858 145.962 703.626C145.747 702.982 145.5 702.307 145.264 701.588C144.782 700.15 144.256 698.573 143.687 696.889C143.419 696.052 143.129 695.183 142.829 694.282C142.014 691.761 141.145 689.025 140.222 686.161C139.954 685.302 139.675 684.433 139.407 683.575C138.859 681.826 138.302 680.045 137.733 678.254C137.465 677.363 137.175 676.462 136.896 675.572C135.416 670.776 133.946 665.938 132.562 661.4C134.075 644.857 135.984 618.626 145.672 586.141C145.672 586.141 177.149 644.331 180.389 670.358C182.62 688.263 190.602 718.024 191.471 753.266C191.911 769.251 190.86 786.363 187.115 803.989Z" fill="white"/>
<path d="M147.903 708.83C147.42 707.628 146.755 705.858 145.983 703.626C145.768 702.983 145.521 702.307 145.285 701.588C144.803 700.151 144.277 698.573 143.708 696.889C143.44 696.052 143.15 695.183 142.85 694.282C142.035 691.761 141.166 689.025 140.243 686.161C139.975 685.303 139.696 684.434 139.428 683.575C138.881 681.827 138.323 680.046 137.754 678.254C137.486 677.364 137.196 676.462 136.917 675.572C135.437 670.776 133.967 665.938 132.583 661.4C134.096 644.857 136.005 618.626 145.693 586.141L142.743 573.557C135.598 585.25 129.89 614.571 126.446 636.221L127.648 644.514C127.648 644.514 125.685 649.545 121.125 657.237C121.147 657.194 121.179 657.162 121.222 657.119C121.533 658.192 121.865 659.297 122.187 660.456C122.52 661.625 122.885 662.827 123.239 664.071V664.093C123.603 665.337 123.979 666.592 124.365 667.901C124.558 668.566 124.751 669.242 124.945 669.897C125.352 671.216 125.738 672.579 126.146 673.931C126.554 675.315 126.983 676.688 127.391 678.072C127.82 679.456 128.249 680.85 128.657 682.224C128.871 682.899 129.086 683.608 129.3 684.305C129.493 684.906 129.665 685.506 129.858 686.107C130.223 687.287 130.598 688.478 130.963 689.658C131.521 691.407 132.068 693.134 132.615 694.819C132.98 695.924 133.334 697.018 133.688 698.08C135.887 704.742 137.883 710.214 139.256 713.046C144.813 724.343 152.613 750.016 151.24 756.828C151.293 756.656 151.411 756.227 151.594 755.551C151.637 755.337 151.712 755.09 151.765 754.811C151.808 754.64 151.862 754.446 151.905 754.232C151.958 753.974 152.023 753.706 152.076 753.438C152.076 753.395 152.098 753.363 152.098 753.299C152.151 753.041 152.194 752.794 152.248 752.505C152.302 752.269 152.345 752 152.398 751.732C152.452 751.325 152.538 750.895 152.613 750.456C152.709 749.833 152.806 749.157 152.902 748.46C152.945 748.128 152.978 747.816 153.042 747.495C153.063 747.323 153.085 747.14 153.096 746.969C153.117 746.679 153.149 746.389 153.171 746.078C153.267 745.145 153.364 744.158 153.428 743.128C153.471 742.506 153.503 741.862 153.525 741.208C153.889 732.496 152.913 720.963 147.903 708.83Z" fill="#595653"/>
<path d="M591.474 820.302C581.401 840.654 572.206 875.199 568.076 891.946C551.737 873.117 529.272 857.39 509.414 845.749C492.077 835.601 476.746 828.563 469.172 825.28C493.268 779.91 537.511 707.43 538.326 706.078C537.844 706.571 530.066 714.607 519.23 727.931C503.342 708.052 492.72 685.147 488.869 676.114C488.869 676.081 493.171 633.651 526.193 590.373C543.991 617.623 566.177 652.2 583.814 680.33C583.825 680.341 583.825 680.341 583.825 680.351C600.325 706.679 612.824 727.341 613.993 731.075C616.589 739.904 604.938 793.116 591.474 820.302Z" fill="white"/>
<path d="M524.521 587.195L524.36 587.592C524.96 588.514 525.572 589.437 526.183 590.38L524.521 587.195Z" fill="#595653"/>
<path d="M623.187 728.369C619.883 717.266 543.304 600.778 528.252 577.766L524.519 587.217L526.171 590.404C543.39 616.795 564.75 650.031 582.097 677.646C599.434 705.261 612.78 727.243 613.982 731.105C616.589 739.924 604.938 793.147 591.474 820.332C581.4 840.684 572.217 875.229 568.076 891.965C537.489 856.723 485.436 832.348 469.182 825.3C493.106 780.23 536.953 708.383 538.305 706.151C537.725 706.73 529.979 714.734 519.24 727.962C503.341 708.082 492.72 685.188 488.869 676.133L483.569 682.077C486.712 691.303 495.606 714.272 513.104 735.665C508.405 741.726 503.32 748.582 498.138 756.07C483.494 777.29 468.002 806.514 458.239 825.503C457.617 826.705 457.542 828.121 458.003 829.387C458.486 830.653 459.484 831.661 460.718 832.166C460.793 832.187 461.479 832.477 462.702 832.981C460.718 845.973 456.04 879.917 459.462 888.908C462.413 896.675 482.238 933.527 490.682 937.882C495.595 940.425 509.166 944.952 522.201 944.931C528.359 944.931 534.41 943.922 539.345 941.197C553.367 933.505 567.035 914.656 567.711 912.596C567.732 912.542 568.312 910.246 568.483 906.963C569.106 907.253 569.781 907.414 570.479 907.414C570.79 907.414 571.144 907.371 571.466 907.317C573.29 906.931 574.749 905.515 575.156 903.67C575.274 903.144 587.215 850.565 600.067 824.581C613.36 797.781 626.953 741.125 623.187 728.369ZM558.602 909.281C556.274 912.714 545.514 926.875 534.721 932.797C523.575 938.912 500.798 932.293 495.134 929.375C490.628 926.575 472.401 895.881 468.431 885.507C466.661 880.829 468.667 858.278 471.811 837.036C486.122 843.677 511.967 856.787 534.957 874.414C541.834 895.484 533.681 910.418 533.327 911.072C533.734 910.815 538.862 907.328 542.124 898.649C542.295 898.263 544.86 894.454 549.623 894.454C550.964 894.454 552.455 894.744 554.15 895.527C559.75 898.091 558.989 906.835 558.602 909.281Z" fill="#595653"/>
<path d="M149.9 561.102C132.766 571.702 146.22 595.561 146.22 595.561L147.507 581.432C147.968 576.336 150.693 571.809 155.017 569.03C176.002 555.481 207.199 530.612 215.117 524.229C211.512 523.124 207.929 522.008 204.367 520.828C192.555 530.398 167.451 550.256 149.9 561.102Z" fill="#595653"/>
<path d="M527.041 587.934C525.614 592.429 523.855 595.561 523.855 595.561L522.675 582.623L522.567 581.432C522.106 576.336 519.381 571.809 515.058 569.03C494.073 555.481 462.875 530.612 454.958 524.229C458.562 523.124 462.146 522.008 465.708 520.828C477.53 530.398 502.634 550.256 520.186 561.102C531.096 567.85 529.584 580.016 527.041 587.934Z" fill="#595653"/>
<path d="M335.047 532.776C695.003 532.776 563.903 276.305 563.903 276.305C563.903 276.305 576.401 88.8494 335.047 148.542C93.6815 88.8494 106.191 276.305 106.191 276.305C106.191 276.305 -24.9198 532.776 335.047 532.776Z" fill="#56D13D"/>
<path d="M335.048 512.355C136.382 512.355 87.2998 434.232 83.2015 364.219C79.0604 438.459 116.76 532.782 335.048 532.782C553.337 532.782 591.025 438.459 586.884 364.219C582.786 434.232 533.715 512.355 335.048 512.355Z" fill="#379E25"/>
<path d="M171.954 204.634C146.839 215.362 131.165 241.324 135.253 268.328C138.707 291.168 156.441 315.5 215.125 318.214C328.459 323.45 326.699 263.596 307.517 227.099C292.197 197.939 220.339 183.949 171.954 204.634Z" fill="white"/>
<path d="M234.338 307.718C259.716 307.718 280.288 286.612 280.288 260.578C280.288 234.543 259.716 213.438 234.338 213.438C208.961 213.438 188.389 234.543 188.389 260.578C188.389 286.612 208.961 307.718 234.338 307.718Z" fill="#1E300C"/>
<path d="M245.722 276.857C256.18 276.857 264.657 266.953 264.657 254.735C264.657 242.518 256.18 232.613 245.722 232.613C235.264 232.613 226.786 242.518 226.786 254.735C226.786 266.953 235.264 276.857 245.722 276.857Z" fill="white"/>
<path opacity="0.35" d="M223.397 289.914C228.437 285.661 227.972 276.822 222.359 270.17C216.745 263.519 208.11 261.574 203.07 265.827C198.03 270.08 198.495 278.919 204.109 285.571C209.722 292.223 218.358 294.167 223.397 289.914Z" fill="white"/>
<path opacity="0.15" d="M134.728 263.431C134.728 263.431 229.502 191.176 316.948 271.187C316.948 271.187 314.964 259.655 313.226 248.422C313.226 248.422 231.229 171.983 135.587 249.291L134.728 263.431Z" fill="#1E1E1E"/>
<path d="M171.954 204.634C146.839 215.362 131.165 241.324 135.253 268.328C138.707 291.168 156.441 315.5 215.125 318.214C328.459 323.45 326.699 263.596 307.517 227.099C292.197 197.939 220.339 183.949 171.954 204.634Z" stroke="#204712" stroke-width="9.70879" stroke-miterlimit="10" stroke-linecap="round" stroke-linejoin="round"/>
<path d="M320.252 244.919C320.231 247 318.868 248.545 317.163 249.092C315.897 249.478 314.459 249.328 313.225 248.416C230.006 186.9 159.457 228.322 137.861 244.178C137.764 244.232 137.689 244.318 137.592 244.35C134.524 246.313 130.501 243.824 130.877 240.102C134.352 205.846 180.956 167.611 255.69 179.98C314.073 189.657 320.424 227.818 320.252 244.919Z" fill="#46C130"/>
<path d="M317.163 249.072C315.897 249.458 314.459 249.308 313.226 248.396C230.006 186.88 159.457 228.302 137.861 244.158C137.764 244.212 137.689 244.298 137.593 244.33C134.889 242.699 133.419 241.744 133.419 241.744C133.419 241.744 159.918 198.155 226.026 198.016C286.974 197.898 314.138 235.447 317.163 249.072Z" fill="#379E25"/>
<path d="M137.86 244.189C159.456 228.311 230.005 186.889 313.225 248.427C316.132 250.572 320.22 248.534 320.263 244.919C320.434 227.807 314.083 189.646 255.689 179.98C180.956 167.611 134.352 205.846 130.887 240.102C130.49 243.953 134.749 246.474 137.86 244.189Z" stroke="#204712" stroke-width="9.70879" stroke-miterlimit="10" stroke-linecap="round" stroke-linejoin="round"/>
<path d="M141.196 286.777C141.196 286.777 201.125 326.569 302.228 300.917C302.325 300.896 292.851 334.797 217.979 329.712C143.278 324.648 141.196 286.777 141.196 286.777Z" fill="#46C130"/>
<path d="M141.196 286.777C141.196 286.777 201.125 326.569 302.228 300.917C302.325 300.896 292.851 334.797 217.979 329.712C143.278 324.648 141.196 286.777 141.196 286.777Z" stroke="#204712" stroke-width="9.70879" stroke-miterlimit="10" stroke-linecap="round" stroke-linejoin="round"/>
<path d="M302.904 319.114C292.595 333.135 276.534 341.718 260.142 346.589C258.468 346.996 253.941 348.069 252.213 348.477C250.465 348.745 245.873 349.453 244.167 349.711C239.672 350.043 235.177 350.462 230.671 350.215C228.879 350.172 227.077 350.086 225.296 349.99C224.384 349.936 223.687 349.163 223.73 348.252C223.773 347.447 224.384 346.803 225.157 346.696C230.381 345.999 235.595 345.527 240.777 344.582C243.674 344.186 248.008 343.145 250.915 342.555C252.567 342.115 256.784 340.988 258.382 340.549C260.732 339.733 263.381 338.961 265.699 338.113C278.573 333.296 290.867 326.731 301.542 317.966C302.272 317.247 303.548 318.212 302.904 319.114Z" fill="#204712"/>
<path d="M498.129 204.634C523.244 215.362 538.918 241.324 534.83 268.328C531.376 291.168 513.642 315.5 454.958 318.214C341.624 323.45 343.384 263.596 362.566 227.099C377.897 197.939 449.744 183.949 498.129 204.634Z" fill="white"/>
<path d="M435.743 307.718C461.12 307.718 481.692 286.612 481.692 260.578C481.692 234.543 461.12 213.438 435.743 213.438C410.366 213.438 389.793 234.543 389.793 260.578C389.793 286.612 410.366 307.718 435.743 307.718Z" fill="#1E300C"/>
<path d="M424.369 276.857C434.826 276.857 443.304 266.953 443.304 254.735C443.304 242.518 434.826 232.613 424.369 232.613C413.911 232.613 405.433 242.518 405.433 254.735C405.433 266.953 413.911 276.857 424.369 276.857Z" fill="white"/>
<path opacity="0.35" d="M465.936 285.553C471.549 278.901 472.014 270.061 466.974 265.808C461.934 261.556 453.299 263.5 447.686 270.152C442.072 276.803 441.607 285.643 446.647 289.896C451.687 294.149 460.322 292.204 465.936 285.553Z" fill="white"/>
<path opacity="0.15" d="M535.355 263.431C535.355 263.431 440.581 191.176 353.135 271.187C353.135 271.187 355.119 259.655 356.857 248.422C356.857 248.422 438.854 171.983 534.496 249.291L535.355 263.431Z" fill="#1E1E1E"/>
<path d="M498.129 204.634C523.244 215.362 538.918 241.324 534.83 268.328C531.376 291.168 513.642 315.5 454.958 318.214C341.624 323.45 343.384 263.596 362.566 227.099C377.897 197.939 449.744 183.949 498.129 204.634Z" stroke="#204712" stroke-width="9.70879" stroke-miterlimit="10" stroke-linecap="round" stroke-linejoin="round"/>
<path d="M349.829 244.919C349.85 247 351.202 248.545 352.919 249.092C354.185 249.478 355.622 249.328 356.856 248.416C440.075 186.9 510.625 228.322 532.221 244.178C532.317 244.232 532.392 244.318 532.489 244.35C535.557 246.313 539.58 243.824 539.205 240.102C535.729 205.846 489.125 167.611 414.392 179.98C356.008 189.657 349.657 227.818 349.829 244.919Z" fill="#46C130"/>
<path d="M352.918 249.072C354.184 249.458 355.622 249.308 356.855 248.396C440.075 186.88 510.624 228.302 532.22 244.158C532.317 244.212 532.392 244.298 532.488 244.33C535.192 242.699 536.662 241.744 536.662 241.744C536.662 241.744 510.163 198.155 444.055 198.016C383.118 197.898 355.943 235.447 352.918 249.072Z" fill="#379E25"/>
<path d="M532.223 244.189C510.627 228.311 440.077 186.889 356.858 248.427C353.951 250.572 349.863 248.534 349.82 244.919C349.649 227.807 356 189.646 414.394 179.98C489.127 167.611 535.731 205.846 539.196 240.102C539.593 243.953 535.334 246.474 532.223 244.189Z" stroke="#204712" stroke-width="9.70879" stroke-miterlimit="10" stroke-linecap="round" stroke-linejoin="round"/>
<path d="M528.886 286.777C528.886 286.777 468.958 326.569 367.855 300.917C367.758 300.896 377.231 334.797 452.104 329.712C526.816 324.648 528.886 286.777 528.886 286.777Z" fill="#46C130"/>
<path d="M528.886 286.777C528.886 286.777 468.958 326.569 367.855 300.917C367.758 300.896 377.231 334.797 452.104 329.712C526.816 324.648 528.886 286.777 528.886 286.777Z" stroke="#204712" stroke-width="9.70879" stroke-miterlimit="10" stroke-linecap="round" stroke-linejoin="round"/>
<path d="M368.528 317.971C384.803 330.662 404.114 339.191 424.251 343.375C431.074 344.941 437.994 345.65 444.935 346.69C445.836 346.84 446.448 347.699 446.287 348.6C446.158 349.361 445.525 349.909 444.785 349.973C442.103 350.177 439.399 350.306 436.706 350.391C417.771 350.52 398.331 345.145 382.743 334.256C376.8 330.061 371.296 325.201 367.176 319.097C366.619 318.249 367.745 317.23 368.528 317.971Z" fill="#204712"/>
<path d="M526.139 375.618C525.538 377.013 524.047 379.931 523.382 381.39C523.36 381.433 523.339 381.465 523.328 381.508C487.421 446.339 401.701 452.905 335.057 453.795C327.118 453.538 315.135 453.645 307.314 453.13C295.931 452.551 284.366 451.671 273.037 450.298C268.316 449.89 257.695 448.002 252.803 447.251C214.16 439.913 173.983 423.874 151.925 389.812C150.606 388.063 149.672 386.1 148.567 384.244L146.958 381.412C146.958 381.412 146.937 381.39 146.915 381.336L145.553 378.483C144.662 376.401 142.753 373.591 143.343 371.284C143.675 368.581 146.196 366.252 148.857 365.748C149.726 365.63 150.563 365.609 151.442 365.866C151.947 365.941 152.301 366.231 152.837 366.349C165.132 371.842 177.63 377.163 190.096 382.248C236.346 400.25 284.913 414.734 335.047 415.066C385.148 414.583 434.015 401.259 480.275 383.042C491.594 378.365 502.977 373.526 514.08 368.28C515.228 367.776 518.221 366.338 519.337 366.081C521.687 365.62 524.422 366.703 525.828 368.795C526.375 369.514 526.783 370.372 526.933 371.241C527.34 372.657 526.761 374.299 526.139 375.618Z" fill="white"/>
<path d="M526.139 375.618C525.538 377.013 524.047 379.931 523.382 381.39C523.36 381.39 523.339 381.412 523.328 381.412C317.452 482.601 146.958 381.412 146.958 381.412C146.958 381.412 146.937 381.39 146.915 381.336L145.553 378.483C144.662 376.401 142.753 373.591 143.343 371.284C143.675 368.581 146.196 366.252 148.857 365.748C149.726 365.63 150.563 365.609 151.442 365.866C151.947 365.941 152.301 366.231 152.837 366.349C165.132 371.842 177.63 377.163 190.096 382.248C236.346 400.25 284.913 414.734 335.047 415.066C385.148 414.583 434.015 401.259 480.275 383.042C491.594 378.365 502.977 373.526 514.08 368.28C515.228 367.776 518.221 366.338 519.337 366.081C521.687 365.62 524.422 366.703 525.828 368.795C526.375 369.514 526.783 370.372 526.933 371.241C527.34 372.657 526.761 374.299 526.139 375.618Z" fill="#C1BFBF"/>
<path d="M516.55 343.375C512.57 343.761 508.428 345.392 504.781 346.829C498.333 349.254 491.499 352.011 484.955 354.114C472.178 358.523 457.63 362.675 444.509 365.84C407.518 374.498 369.54 380.559 331.658 380.516C295.869 379.583 260.337 374.691 225.362 366.612C207.403 362.375 188.757 356.764 171.657 349.908C169.661 349.115 163.675 346.722 161.829 345.982C152.936 342.12 142.004 342.914 134.022 348.524C122.446 356.056 117.865 371.708 123.669 384.228C124.431 385.998 126.158 389.689 126.887 391.448C128.69 394.688 130.535 398.711 132.573 401.833L136.79 408.517C138.785 411.081 141.725 415.426 143.881 417.99C146.488 420.844 148.988 424.127 151.723 426.841C154.094 429.019 157.688 432.924 160.167 435.07C208.186 476.781 273.414 488.872 335.038 489.376C343.599 489.022 356.473 488.99 364.884 488.271C415.521 484.441 467.178 470.956 506.905 437.591C510.499 434.737 515.059 430.178 518.395 426.873C521.013 424.095 523.673 420.93 526.205 418.001C528.093 415.802 531.355 410.877 533.254 408.485C535.721 404.655 539.251 398.851 541.214 394.849L543.006 391.33L544.583 387.715L546.192 384.1L546.6 383.188C546.965 381.889 547.651 380.409 547.919 379.111C552.919 360.154 535.968 341.047 516.55 343.375ZM526.141 375.624C525.519 377.062 523.963 380.087 523.33 381.503C487.422 446.334 401.693 452.9 335.059 453.791C327.12 453.533 315.137 453.64 307.316 453.125C295.933 452.546 284.368 451.666 273.039 450.293C268.318 449.885 257.697 447.997 252.805 447.246C214.162 439.908 173.985 423.869 151.927 389.807C150.608 388.058 149.674 386.095 148.569 384.239L146.96 381.407L145.565 378.478C144.675 376.397 142.765 373.586 143.355 371.279C143.688 368.576 146.209 366.248 148.87 365.743C149.739 365.625 150.575 365.604 151.455 365.861C151.959 365.937 152.313 366.226 152.85 366.344C165.144 371.837 177.643 377.158 190.109 382.244C236.359 400.246 284.926 414.729 335.059 415.061C385.16 414.579 434.028 401.254 480.288 383.037C491.606 378.36 502.989 373.521 514.093 368.275C515.241 367.771 518.234 366.333 519.35 366.076C521.699 365.615 524.435 366.698 525.841 368.79C526.388 369.509 526.795 370.367 526.946 371.236C527.342 372.663 526.763 374.305 526.141 375.624Z" fill="#FB4E0A"/>
<path d="M335.153 432.52V410.859" stroke="#4C3A27" stroke-width="3.88354" stroke-miterlimit="10" stroke-linecap="round" stroke-linejoin="round"/>
<path d="M293.356 430.751V407.299" stroke="#4C3A27" stroke-width="3.88354" stroke-miterlimit="10" stroke-linecap="round" stroke-linejoin="round"/>
<path d="M254.017 425.689V395.832" stroke="#4C3A27" stroke-width="3.88354" stroke-miterlimit="10" stroke-linecap="round" stroke-linejoin="round"/>
<path d="M215.126 416.941V391.977" stroke="#4C3A27" stroke-width="3.88354" stroke-miterlimit="10" stroke-linecap="round" stroke-linejoin="round"/>
<path d="M178.349 404.477V377.281" stroke="#4C3A27" stroke-width="3.88354" stroke-miterlimit="10" stroke-linecap="round" stroke-linejoin="round"/>
<path d="M376.749 430.751V407.299" stroke="#4C3A27" stroke-width="3.88354" stroke-miterlimit="10" stroke-linecap="round" stroke-linejoin="round"/>
<path d="M416.078 425.689V395.832" stroke="#4C3A27" stroke-width="3.88354" stroke-miterlimit="10" stroke-linecap="round" stroke-linejoin="round"/>
<path d="M454.968 416.941V391.977" stroke="#4C3A27" stroke-width="3.88354" stroke-miterlimit="10" stroke-linecap="round" stroke-linejoin="round"/>
<path d="M491.746 404.477V377.281" stroke="#4C3A27" stroke-width="3.88354" stroke-miterlimit="10" stroke-linecap="round" stroke-linejoin="round"/>
<path d="M335.153 453.322V431.65" stroke="#4C3A27" stroke-width="3.88354" stroke-miterlimit="10" stroke-linecap="round" stroke-linejoin="round"/>
<path d="M293.356 451.557V428.094" stroke="#4C3A27" stroke-width="3.88354" stroke-miterlimit="10" stroke-linecap="round" stroke-linejoin="round"/>
<path d="M254.017 446.478V416.621" stroke="#4C3A27" stroke-width="3.88354" stroke-miterlimit="10" stroke-linecap="round" stroke-linejoin="round"/>
<path d="M215.126 437.751V412.797" stroke="#4C3A27" stroke-width="3.88354" stroke-miterlimit="10" stroke-linecap="round" stroke-linejoin="round"/>
<path d="M178.349 420.658V398.064" stroke="#4C3A27" stroke-width="3.88354" stroke-miterlimit="10" stroke-linecap="round" stroke-linejoin="round"/>
<path d="M376.749 451.557V428.094" stroke="#4C3A27" stroke-width="3.88354" stroke-miterlimit="10" stroke-linecap="round" stroke-linejoin="round"/>
<path d="M416.078 446.478V416.621" stroke="#4C3A27" stroke-width="3.88354" stroke-miterlimit="10" stroke-linecap="round" stroke-linejoin="round"/>
<path d="M454.968 437.751V412.797" stroke="#4C3A27" stroke-width="3.88354" stroke-miterlimit="10" stroke-linecap="round" stroke-linejoin="round"/>
<path d="M491.746 417.397V398.064" stroke="#4C3A27" stroke-width="3.88354" stroke-miterlimit="10" stroke-linecap="round" stroke-linejoin="round"/>
<path d="M516.41 392.773C516.41 392.773 451.933 432.543 335.156 432.543C218.378 432.543 153.901 392.773 153.901 392.773" stroke="#4C3A27" stroke-width="3.88354" stroke-miterlimit="10" stroke-linecap="round" stroke-linejoin="round"/>
<path d="M547.934 366.194C547.666 367.492 546.979 368.973 546.614 370.271L546.207 371.183L544.597 374.798L543.02 378.413L541.229 381.932C539.265 385.934 535.736 391.738 533.268 395.568C531.369 397.96 528.108 402.885 526.22 405.084C523.699 408.013 521.038 411.178 518.41 413.956C515.073 417.261 510.503 421.82 506.92 424.674C467.193 458.028 415.536 471.524 364.898 475.354C356.487 476.073 343.613 476.116 335.052 476.459C273.418 475.955 208.201 463.854 160.181 422.153C157.692 419.996 154.098 416.091 151.738 413.924C149.002 411.21 146.492 407.927 143.895 405.073C141.739 402.509 138.81 398.164 136.804 395.6L132.588 388.916C130.549 385.794 128.704 381.771 126.902 378.531C126.162 376.761 124.434 373.071 123.683 371.311C122.922 369.659 122.342 367.953 121.935 366.215C120.572 372.17 121.033 378.542 123.683 384.271C124.445 386.041 126.172 389.732 126.902 391.491C128.704 394.731 130.549 398.754 132.588 401.876L136.804 408.56C138.799 411.124 141.739 415.469 143.895 418.033C146.502 420.887 149.002 424.17 151.738 426.884C154.109 429.062 157.703 432.967 160.181 435.112C208.201 476.824 273.429 488.915 335.052 489.419C343.613 489.065 356.487 489.033 364.898 488.314C415.536 484.484 467.193 470.999 506.92 437.634C510.514 434.78 515.073 430.22 518.41 426.916C521.027 424.137 523.688 420.973 526.22 418.044C528.108 415.844 531.369 410.92 533.268 408.528C535.736 404.698 539.265 398.894 541.229 394.892L543.02 391.373L544.597 387.758L546.207 384.142L546.614 383.23C546.979 381.932 547.666 380.452 547.934 379.154C549.125 374.626 549.05 370.088 548.02 365.84C547.977 365.958 547.966 366.076 547.934 366.194Z" fill="#D13100"/>
<path d="M526.937 358.292C526.787 357.423 526.38 356.565 525.832 355.846C524.438 353.754 521.691 352.66 519.342 353.132C518.215 353.389 515.222 354.816 514.085 355.331C502.981 360.577 491.598 365.405 480.28 370.093C434.03 388.31 385.152 401.624 335.051 402.117C284.918 401.784 236.351 387.301 190.101 369.299C177.635 364.214 165.126 358.893 152.842 353.4C152.295 353.282 151.951 352.992 151.447 352.917C150.578 352.66 149.741 352.681 148.862 352.799C146.201 353.303 143.68 355.631 143.347 358.335C142.768 360.641 144.667 363.463 145.557 365.534L146.212 366.896C147.016 366.338 147.928 365.92 148.862 365.748C149.731 365.63 150.567 365.609 151.447 365.866C151.951 365.941 152.305 366.231 152.842 366.349C165.136 371.842 177.635 377.163 190.101 382.248C236.351 400.25 284.918 414.733 335.051 415.066C385.152 414.583 434.02 401.259 480.28 383.042C491.598 378.365 502.981 373.526 514.085 368.28C515.233 367.776 518.226 366.338 519.342 366.081C520.908 365.77 522.625 366.156 524.03 367.068C524.76 365.576 525.693 363.71 526.144 362.669C526.766 361.339 527.345 359.687 526.937 358.292Z" fill="#D13100"/>
<path d="M335.048 453.812C401.692 452.911 487.422 446.356 523.33 381.514C523.973 380.109 525.529 377.083 526.151 375.635C526.752 374.305 527.353 372.663 526.924 371.258C526.773 370.389 526.376 369.531 525.829 368.812C524.435 366.72 521.699 365.625 519.339 366.098C518.212 366.355 515.219 367.782 514.071 368.286C502.967 373.532 491.595 378.371 480.255 383.037C434.006 401.254 385.138 414.579 335.037 415.051C284.915 414.729 236.337 400.246 190.098 382.233C177.632 377.158 165.112 371.826 152.828 366.334C152.281 366.216 151.927 365.926 151.433 365.851C150.564 365.593 149.717 365.615 148.837 365.722C146.187 366.226 143.655 368.576 143.333 371.269C142.754 373.586 144.664 376.397 145.543 378.467L146.938 381.407L148.547 384.239C149.663 386.106 150.586 388.069 151.905 389.807C173.973 423.869 214.151 439.897 252.783 447.257C257.676 448.019 268.297 449.896 273.028 450.304C284.346 451.677 295.922 452.546 307.305 453.136C315.126 453.64 327.109 453.555 335.048 453.812ZM335.048 489.419C273.414 488.926 208.186 476.814 160.188 435.113C157.688 432.946 154.094 429.051 151.734 426.873C149.009 424.159 146.498 420.865 143.891 418.022C141.724 415.448 138.806 411.103 136.8 408.539L132.594 401.855C130.545 398.733 128.721 394.721 126.898 391.47C126.157 389.711 124.43 386.02 123.69 384.25C117.886 371.719 122.456 356.067 134.032 348.546C142.003 342.935 152.946 342.141 161.84 345.993C163.696 346.744 169.671 349.125 171.656 349.919C188.768 356.775 207.414 362.396 225.362 366.634C260.325 374.702 295.868 379.594 331.647 380.527C369.55 380.559 407.518 374.508 444.509 365.84C457.64 362.675 472.199 358.523 484.965 354.103C491.509 352.011 498.343 349.243 504.791 346.829C508.439 345.381 512.569 343.761 516.549 343.375C535.968 341.047 552.918 360.143 547.919 379.154C547.651 380.463 546.975 381.932 546.599 383.231L546.192 384.153L544.582 387.747L543.016 391.373L541.214 394.882C539.261 398.894 535.732 404.687 533.264 408.517C531.354 410.899 528.104 415.845 526.216 418.033C523.684 420.962 521.023 424.116 518.405 426.916C515.069 430.21 510.509 434.759 506.905 437.623C467.188 470.977 415.542 484.474 364.905 488.314C356.483 489.022 343.598 489.065 335.048 489.419Z" stroke="#4C3A27" stroke-width="9.70879" stroke-miterlimit="10" stroke-linecap="round" stroke-linejoin="round"/>
<path d="M111.266 262.193C110.826 268.029 110.687 273.93 111.116 279.777C111.492 285.881 112.629 291.632 113.551 297.758C113.766 298.863 113.004 299.946 111.878 300.086C110.161 300.289 109.496 298.423 108.584 297.318C106.203 293.863 104.593 289.883 103.413 285.871C101.235 277.696 100.345 269.156 101.664 260.745C102.877 254.512 111.921 255.885 111.266 262.193Z" fill="#204712"/>
<path d="M568.42 260.767C569.814 269.993 568.763 279.456 565.898 288.296C565.405 289.851 564.686 291.493 564.01 292.963C563.238 294.443 562.455 295.977 561.489 297.34C560.513 298.734 559.193 301.138 557.241 299.7C556.64 299.228 556.404 298.477 556.533 297.78C557.445 291.654 558.582 285.903 558.968 279.799C559.397 273.963 559.268 268.052 558.818 262.215C558.185 255.896 567.197 254.555 568.42 260.767Z" fill="#204712"/>
<path d="M335.047 532.776C695.003 532.776 563.903 276.305 563.903 276.305C563.903 276.305 576.401 88.8494 335.047 148.542C93.6815 88.8494 106.191 276.305 106.191 276.305C106.191 276.305 -24.9198 532.776 335.047 532.776Z" stroke="#204712" stroke-width="9.70879" stroke-miterlimit="10" stroke-linecap="round" stroke-linejoin="round"/>
<path d="M609.327 300.922C609.327 300.922 604.628 280.227 591.228 255.037C574.61 223.732 544.55 185.518 493.483 171.581C432.042 154.824 382.102 162.28 355.635 169.114C348.876 170.841 341.967 171.721 335.047 171.721C328.117 171.721 321.208 170.852 314.449 169.114C287.982 162.28 238.064 154.824 176.623 171.581C84.4666 196.729 60.7571 300.922 60.7571 300.922C60.7571 300.922 60.0597 265.197 83.4582 225.159C113.261 174.124 182.191 116.084 341.538 116.084C525.485 116.084 583.504 193.446 601.517 248.063C611.387 277.867 609.327 300.922 609.327 300.922Z" fill="white"/>
<path d="M586.647 225.16C520.936 137.8 407.366 139.667 386.661 143.454C358.778 148.56 335.047 151.961 335.047 151.961C335.047 151.961 311.316 148.56 283.433 143.454C262.738 139.667 149.158 137.8 83.4469 225.16C60.0485 265.198 60.7459 300.924 60.7459 300.924C60.7459 300.924 84.4554 196.73 176.611 171.583C238.052 154.826 287.971 162.282 314.438 169.116C321.197 170.843 328.106 171.723 335.036 171.723C341.967 171.723 348.876 170.854 355.635 169.116C382.101 162.282 432.02 154.826 493.461 171.583C585.617 196.73 609.327 300.924 609.327 300.924C609.327 300.924 610.045 265.209 586.647 225.16Z" fill="#C1BFBF"/>
<path d="M609.328 300.925C609.328 300.925 604.629 280.231 591.229 255.041L575.791 214.691C575.791 214.691 576.724 214.745 578.377 214.906C581.209 218.189 583.966 221.59 586.648 225.162C591.948 232.211 596.936 239.828 601.517 248.078C611.388 277.87 609.328 300.925 609.328 300.925Z" fill="#C1BFBF"/>
<path d="M622.735 417.315C620.171 319.837 593.522 194.724 481.583 173.729C440.826 164.91 397.892 163.709 357.285 173.836C342.813 177.677 327.149 177.688 312.698 173.804C276.994 163.848 239.177 159.664 202.873 168.429C113.828 189.65 66.3229 261.948 52.1401 348.546C48.9431 366.945 46.7974 385.656 45.9499 404.398C45.9392 405.192 45.274 405.825 44.4801 405.793C43.7828 405.76 43.2356 405.235 43.1498 404.57C42.5168 399.774 42.2057 395.032 42.0448 390.247C41.5513 375.904 42.4632 361.538 44.4265 347.334C55.5624 269.286 97.2419 197.782 173.005 167.978C217.989 149.022 268.97 150.996 315.187 164.116C328.19 167.506 341.804 167.528 354.796 164.127C359.506 162.936 364.237 161.906 368.99 161.027C406.925 154.15 446.158 155.813 483.675 164.213C493.084 166.348 502.557 168.772 511.59 172.313C548.345 186.034 577.591 215.687 595.357 250.104C617.554 292.824 627.059 341.101 627.949 388.906C628.046 398.454 627.885 407.96 626.93 417.54C626.49 420.19 622.875 420.05 622.735 417.315Z" fill="#595653"/>
<path d="M335.154 68.1094C544.163 68.1094 517.235 126.246 517.235 126.246C517.235 126.246 460.793 95.5309 331.979 95.5309C203.164 95.5309 153.063 126.235 153.063 126.235C153.063 126.235 126.145 68.1094 335.154 68.1094Z" fill="#5B5B5B"/>
<path d="M335.055 84.1719C184.087 84.1719 153.071 126.238 153.071 126.238C197.261 95.0396 335.055 95.5331 335.055 95.5331C335.055 95.5331 472.849 95.0504 517.039 126.238C517.039 126.227 486.024 84.1719 335.055 84.1719Z" fill="#424242"/>
<path d="M335.153 76.1449C487.849 76.1449 514.616 107.171 517.953 123.886C520.302 113.018 518.865 68.1094 335.153 68.1094C151.442 68.1094 150.004 113.018 152.354 123.886C155.69 107.171 182.457 76.1449 335.153 76.1449Z" fill="#757575"/>
<path d="M335.154 68.1094C544.163 68.1094 517.235 126.246 517.235 126.246C517.235 126.246 460.793 95.5309 331.979 95.5309C203.164 95.5309 153.063 126.235 153.063 126.235C153.063 126.235 126.145 68.1094 335.154 68.1094Z" stroke="#353434" stroke-width="8.76309" stroke-miterlimit="10" stroke-linecap="round" stroke-linejoin="round"/>
<path d="M335.152 94.5938C566.711 94.5938 536.887 158.996 536.887 158.996C536.887 158.996 474.351 124.966 331.633 124.966C188.914 124.966 133.417 158.996 133.417 158.996C133.417 158.996 103.582 94.5938 335.152 94.5938Z" fill="#5B5B5B"/>
<path d="M335.045 112.398C167.78 112.398 133.417 159.002 133.417 159.002C182.371 124.446 335.045 124.983 335.045 124.983C335.045 124.983 487.709 124.446 536.673 159.002C536.662 159.002 502.31 112.398 335.045 112.398Z" fill="#424242"/>
<path d="M335.15 103.498C504.325 103.498 533.978 137.872 537.679 156.389C540.275 144.341 538.688 94.5938 335.15 94.5938C131.613 94.5938 130.025 144.352 132.622 156.389C136.323 137.872 165.965 103.498 335.15 103.498Z" fill="#757575"/>
<path d="M335.152 94.5938C566.711 94.5938 536.887 158.996 536.887 158.996C536.887 158.996 474.351 124.966 331.633 124.966C188.914 124.966 133.417 158.996 133.417 158.996C133.417 158.996 103.582 94.5938 335.152 94.5938Z" stroke="#353434" stroke-width="9.70879" stroke-miterlimit="10" stroke-linecap="round" stroke-linejoin="round"/>
</g>
</svg>
