<svg width="33" height="33" viewBox="0 0 33 33" fill="none" xmlns="http://www.w3.org/2000/svg">
<path fill-rule="evenodd" clip-rule="evenodd" d="M9.6975 0.099C11.457 0.018 12.018 0 16.5 0C20.982 0 21.543 0.0195 23.301 0.099C25.059 0.1785 26.259 0.459 27.309 0.8655C28.4085 1.281 29.406 1.9305 30.231 2.7705C31.071 3.594 31.719 4.59 32.133 5.691C32.541 6.741 32.82 7.941 32.901 9.696C32.982 11.4585 33 12.0195 33 16.5C33 20.982 32.9805 21.543 32.901 23.3025C32.8215 25.0575 32.541 26.2575 32.133 27.3075C31.719 28.4086 31.0699 29.4063 30.231 30.231C29.406 31.071 28.4085 31.719 27.309 32.133C26.259 32.541 25.059 32.82 23.304 32.901C21.543 32.982 20.982 33 16.5 33C12.018 33 11.457 32.9805 9.6975 32.901C7.9425 32.8215 6.7425 32.541 5.6925 32.133C4.59138 31.7189 3.59373 31.0699 2.769 30.231C1.92957 29.407 1.27997 28.4098 0.8655 27.309C0.459 26.259 0.18 25.059 0.099 23.304C0.018 21.5415 0 20.9805 0 16.5C0 12.018 0.0195 11.457 0.099 9.699C0.1785 7.941 0.459 6.741 0.8655 5.691C1.28058 4.59012 1.93068 3.59297 2.7705 2.769C3.59406 1.92975 4.59071 1.28017 5.691 0.8655C6.741 0.459 7.941 0.18 9.696 0.099H9.6975ZM23.1675 3.069C21.4275 2.9895 20.9055 2.973 16.5 2.973C12.0945 2.973 11.5725 2.9895 9.8325 3.069C8.223 3.1425 7.35 3.411 6.768 3.6375C5.9985 3.9375 5.448 4.293 4.8705 4.8705C4.32307 5.40308 3.90177 6.05142 3.6375 6.768C3.411 7.35 3.1425 8.223 3.069 9.8325C2.9895 11.5725 2.973 12.0945 2.973 16.5C2.973 20.9055 2.9895 21.4275 3.069 23.1675C3.1425 24.777 3.411 25.65 3.6375 26.232C3.9015 26.9475 4.323 27.597 4.8705 28.1295C5.403 28.677 6.0525 29.0985 6.768 29.3625C7.35 29.589 8.223 29.8575 9.8325 29.931C11.5725 30.0105 12.093 30.027 16.5 30.027C20.907 30.027 21.4275 30.0105 23.1675 29.931C24.777 29.8575 25.65 29.589 26.232 29.3625C27.0015 29.0625 27.552 28.707 28.1295 28.1295C28.677 27.597 29.0985 26.9475 29.3625 26.232C29.589 25.65 29.8575 24.777 29.931 23.1675C30.0105 21.4275 30.027 20.9055 30.027 16.5C30.027 12.0945 30.0105 11.5725 29.931 9.8325C29.8575 8.223 29.589 7.35 29.3625 6.768C29.0625 5.9985 28.707 5.448 28.1295 4.8705C27.5969 4.32311 26.9486 3.90182 26.232 3.6375C25.65 3.411 24.777 3.1425 23.1675 3.069ZM14.3925 21.5865C15.5695 22.0764 16.8801 22.1426 18.1004 21.7736C19.3207 21.4046 20.3751 20.6234 21.0834 19.5634C21.7917 18.5034 22.1101 17.2303 21.9841 15.9617C21.8581 14.693 21.2955 13.5075 20.3925 12.6075C19.8169 12.0322 19.1208 11.5917 18.3545 11.3177C17.5882 11.0437 16.7706 10.943 15.9607 11.0229C15.1508 11.1028 14.3687 11.3613 13.6707 11.7797C12.9727 12.1981 12.3761 12.7661 11.924 13.4428C11.4718 14.1194 11.1753 14.8879 11.0558 15.6929C10.9363 16.4979 10.9967 17.3194 11.2328 18.0983C11.4689 18.8771 11.8747 19.5939 12.4211 20.1971C12.9674 20.8003 13.6407 21.2748 14.3925 21.5865ZM10.503 10.503C11.2905 9.71546 12.2255 9.09075 13.2544 8.66454C14.2834 8.23833 15.3863 8.01896 16.5 8.01896C17.6137 8.01896 18.7166 8.23833 19.7456 8.66454C20.7745 9.09075 21.7095 9.71546 22.497 10.503C23.2845 11.2905 23.9092 12.2255 24.3355 13.2544C24.7617 14.2834 24.981 15.3863 24.981 16.5C24.981 17.6137 24.7617 18.7166 24.3355 19.7456C23.9092 20.7745 23.2845 21.7095 22.497 22.497C20.9065 24.0875 18.7493 24.981 16.5 24.981C14.2507 24.981 12.0935 24.0875 10.503 22.497C8.9125 20.9065 8.01896 18.7493 8.01896 16.5C8.01896 14.2507 8.9125 12.0935 10.503 10.503ZM26.862 9.282C27.0572 9.0979 27.2134 8.87652 27.3215 8.63096C27.4295 8.3854 27.4872 8.12065 27.4911 7.8524C27.495 7.58414 27.4451 7.31782 27.3442 7.06921C27.2434 6.82061 27.0936 6.59477 26.9039 6.40506C26.7142 6.21535 26.4884 6.06564 26.2398 5.96478C25.9912 5.86392 25.7249 5.81396 25.4566 5.81787C25.1883 5.82179 24.9236 5.87948 24.678 5.98754C24.4325 6.09561 24.2111 6.25184 24.027 6.447C23.669 6.82654 23.4729 7.33068 23.4806 7.8524C23.4882 8.37411 23.6988 8.87232 24.0677 9.24126C24.4367 9.61021 24.9349 9.82084 25.4566 9.82845C25.9783 9.83605 26.4825 9.64003 26.862 9.282Z" fill="#FF9D00"/>
</svg>
