<svg width="22" height="18" viewBox="0 0 22 18" fill="none" xmlns="http://www.w3.org/2000/svg">
<g clip-path="url(#clip0_445_1878)">
<path d="M21.2882 2.33025C20.5144 2.682 19.6802 2.91314 18.8159 3.02368C19.7003 2.49105 20.3837 1.64687 20.7053 0.631854C19.8711 1.13434 18.9466 1.48608 17.9717 1.68707C17.1779 0.822798 16.0623 0.320312 14.7961 0.320312C12.4344 0.320312 10.5048 2.24986 10.5048 4.63164C10.5048 4.97333 10.545 5.30497 10.6154 5.61651C7.03768 5.43562 3.85191 3.71711 1.73142 1.11424C1.35958 1.74737 1.14853 2.49105 1.14853 3.27493C1.14853 4.77234 1.90226 6.0989 3.06803 6.85264C2.3545 6.85264 1.69122 6.65163 1.10834 6.35011V6.38031C1.10834 8.47062 2.59569 10.2193 4.56544 10.6112C3.93303 10.7843 3.26912 10.8084 2.62584 10.6816C2.8988 11.5383 3.43338 12.2879 4.15442 12.8251C4.87546 13.3623 5.74673 13.66 6.6457 13.6764C5.12182 14.8828 3.23284 15.5349 1.28923 15.5255C0.947539 15.5255 0.60585 15.5054 0.26416 15.4652C2.17361 16.6913 4.44484 17.4048 6.87685 17.4048C14.7961 17.4048 19.1476 10.8323 19.1476 5.13413C19.1476 4.94318 19.1476 4.76229 19.1375 4.57134C19.9817 3.96836 20.7053 3.20458 21.2882 2.33025Z" fill="#3C8430"/>
</g>
<defs>
<clipPath id="clip0_445_1878">
<rect width="21.024" height="17.52" fill="white" transform="translate(0.263672 0.320312)"/>
</clipPath>
</defs>
</svg>
